<svg width="61" height="39" viewBox="0 0 61 39" fill="none" xmlns="http://www.w3.org/2000/svg">
<g clip-path="url(#clip0_10_65)">
<path d="M2.652 30.036L2.712 31.32L2.916 31.476L2.292 36H0.12L0.96 30.036H2.652ZM4.956 29.868C5.524 29.868 5.94 30.02 6.204 30.324C6.476 30.62 6.572 31.036 6.492 31.572L5.868 36H3.78L4.308 32.184C4.34 32 4.328 31.876 4.272 31.812C4.216 31.748 4.116 31.716 3.972 31.716C3.86 31.716 3.736 31.74 3.6 31.788C3.472 31.828 3.32 31.904 3.144 32.016C2.976 32.128 2.772 32.28 2.532 32.472L2.196 31.512C2.7 30.936 3.164 30.52 3.588 30.264C4.012 30 4.468 29.868 4.956 29.868ZM8.58 29.868C9.164 29.868 9.588 30.02 9.852 30.324C10.116 30.628 10.212 31.044 10.14 31.572L9.516 36H7.356L7.884 32.184C7.908 31.992 7.888 31.868 7.824 31.812C7.76 31.748 7.668 31.716 7.548 31.716C7.444 31.716 7.328 31.74 7.2 31.788C7.072 31.828 6.924 31.904 6.756 32.016C6.588 32.12 6.392 32.272 6.168 32.472L5.82 31.512C6.324 30.936 6.788 30.52 7.212 30.264C7.636 30 8.092 29.868 8.58 29.868ZM14.4463 29.868C15.2303 29.868 15.8343 29.952 16.2583 30.12C16.6903 30.288 16.9783 30.532 17.1223 30.852C17.2743 31.164 17.3143 31.556 17.2423 32.028C17.1943 32.388 17.0703 32.672 16.8703 32.88C16.6783 33.08 16.4103 33.232 16.0663 33.336C15.7223 33.432 15.2863 33.5 14.7583 33.54L11.6503 33.792L11.7943 32.7L14.2543 32.448C14.4383 32.432 14.5903 32.408 14.7103 32.376C14.8383 32.336 14.9383 32.276 15.0103 32.196C15.0903 32.108 15.1383 31.98 15.1543 31.812C15.1783 31.676 15.1703 31.572 15.1303 31.5C15.0903 31.428 15.0143 31.38 14.9023 31.356C14.7983 31.324 14.6423 31.312 14.4343 31.32C14.2343 31.32 14.0663 31.344 13.9303 31.392C13.7943 31.44 13.6783 31.52 13.5823 31.632C13.4943 31.736 13.4183 31.892 13.3543 32.1C13.2983 32.3 13.2423 32.564 13.1863 32.892C13.1143 33.34 13.0943 33.676 13.1263 33.9C13.1663 34.124 13.2663 34.272 13.4263 34.344C13.5943 34.416 13.8263 34.452 14.1223 34.452C14.3063 34.452 14.5383 34.448 14.8183 34.44C15.0983 34.424 15.3903 34.408 15.6943 34.392C16.0063 34.368 16.2783 34.344 16.5103 34.32L16.6663 35.664C16.4023 35.776 16.1143 35.872 15.8023 35.952C15.4903 36.024 15.1743 36.072 14.8543 36.096C14.5343 36.128 14.2223 36.144 13.9183 36.144C13.0623 36.144 12.4023 36.024 11.9383 35.784C11.4743 35.536 11.1663 35.176 11.0143 34.704C10.8623 34.224 10.8223 33.64 10.8943 32.952C10.9663 32.328 11.0903 31.816 11.2663 31.416C11.4503 31.008 11.6863 30.696 11.9743 30.48C12.2703 30.256 12.6223 30.1 13.0303 30.012C13.4463 29.916 13.9183 29.868 14.4463 29.868ZM21.6838 32.268L21.5038 33.588H17.9758L18.1678 32.268H21.6838ZM24.9293 30.036L24.9893 31.32L25.1933 31.476L24.5693 36H22.3973L23.2373 30.036H24.9293ZM27.2333 29.868C27.8013 29.868 28.2173 30.02 28.4813 30.324C28.7533 30.62 28.8493 31.036 28.7693 31.572L28.1453 36H26.0573L26.5853 32.184C26.6173 32 26.6053 31.876 26.5493 31.812C26.4933 31.748 26.3933 31.716 26.2493 31.716C26.1373 31.716 26.0133 31.74 25.8773 31.788C25.7493 31.828 25.5973 31.904 25.4213 32.016C25.2533 32.128 25.0493 32.28 24.8093 32.472L24.4733 31.512C24.9773 30.936 25.4413 30.52 25.8653 30.264C26.2893 30 26.7453 29.868 27.2333 29.868ZM30.8573 29.868C31.4413 29.868 31.8653 30.02 32.1293 30.324C32.3933 30.628 32.4893 31.044 32.4173 31.572L31.7933 36H29.6333L30.1613 32.184C30.1853 31.992 30.1653 31.868 30.1013 31.812C30.0373 31.748 29.9453 31.716 29.8253 31.716C29.7213 31.716 29.6053 31.74 29.4773 31.788C29.3493 31.828 29.2013 31.904 29.0333 32.016C28.8653 32.12 28.6693 32.272 28.4453 32.472L28.0973 31.512C28.6013 30.936 29.0653 30.52 29.4893 30.264C29.9133 30 30.3693 29.868 30.8573 29.868ZM35.9557 30.036L35.4037 33.852C35.3797 34.036 35.3997 34.164 35.4637 34.236C35.5357 34.3 35.6397 34.332 35.7757 34.332C36.0077 34.332 36.2357 34.272 36.4597 34.152C36.6837 34.024 36.9677 33.82 37.3117 33.54L37.6717 34.512C37.1437 35.08 36.6437 35.5 36.1717 35.772C35.7077 36.036 35.2357 36.168 34.7557 36.168C34.1557 36.168 33.7157 36.02 33.4357 35.724C33.1637 35.42 33.0677 35 33.1477 34.464L33.7597 30.036H35.9557ZM39.8077 30.036L38.9797 36H37.2757L37.2517 34.392L37.0597 34.248L37.6477 30.036H39.8077ZM43.7261 29.868C44.1501 29.868 44.5941 29.904 45.0581 29.976C45.5221 30.04 45.9301 30.148 46.2821 30.3L45.9821 31.632C45.5741 31.624 45.2021 31.62 44.8661 31.62C44.5301 31.62 44.2421 31.62 44.0021 31.62C43.7061 31.62 43.4701 31.664 43.2941 31.752C43.1181 31.832 42.9821 31.972 42.8861 32.172C42.7901 32.364 42.7181 32.64 42.6701 33C42.6141 33.392 42.6061 33.688 42.6461 33.888C42.6861 34.088 42.7821 34.224 42.9341 34.296C43.0861 34.368 43.3061 34.404 43.5941 34.404C43.7461 34.404 43.9261 34.404 44.1341 34.404C44.3501 34.396 44.5781 34.388 44.8181 34.38C45.0661 34.364 45.3101 34.344 45.5501 34.32L45.7061 35.712C45.3301 35.872 44.9221 35.984 44.4821 36.048C44.0421 36.112 43.6181 36.144 43.2101 36.144C42.5061 36.144 41.9261 36.036 41.4701 35.82C41.0141 35.604 40.6941 35.26 40.5101 34.788C40.3341 34.316 40.2981 33.696 40.4021 32.928C40.5061 32.2 40.6781 31.612 40.9181 31.164C41.1581 30.716 41.5021 30.388 41.9501 30.18C42.4061 29.972 42.9981 29.868 43.7261 29.868ZM51.6391 29.868C52.2311 29.868 52.6631 30.016 52.9351 30.312C53.2151 30.608 53.3151 31.028 53.2351 31.572L52.6111 36H50.4391L50.9791 32.184C51.0031 31.992 50.9911 31.868 50.9431 31.812C50.9031 31.748 50.8071 31.716 50.6551 31.716C50.4231 31.716 50.1871 31.776 49.9471 31.896C49.7071 32.008 49.4071 32.208 49.0471 32.496L48.7231 31.512C49.2511 30.944 49.7631 30.528 50.2591 30.264C50.7551 30 51.2151 29.868 51.6391 29.868ZM49.8511 27.6L49.5871 29.556C49.5311 29.964 49.4431 30.356 49.3231 30.732C49.2111 31.108 49.1071 31.408 49.0111 31.632L49.2631 31.752L48.6751 36H46.4911L47.6671 27.6H49.8511ZM60.9553 30.036C60.8913 30.452 60.7993 30.884 60.6793 31.332C60.5593 31.78 60.4233 32.224 60.2713 32.664C60.1193 33.104 59.9593 33.52 59.7913 33.912C59.6313 34.304 59.4753 34.656 59.3233 34.968C59.1793 35.272 59.0513 35.516 58.9393 35.7C58.5553 36.34 58.1353 36.864 57.6793 37.272C57.2233 37.688 56.7313 37.992 56.2033 38.184C55.6753 38.376 55.0913 38.472 54.4513 38.472L54.2833 37.26C54.5713 37.164 54.8433 37.068 55.0993 36.972C55.3633 36.884 55.6113 36.764 55.8433 36.612C56.0753 36.46 56.3033 36.248 56.5273 35.976C56.7513 35.704 56.9753 35.344 57.1993 34.896C57.4393 34.432 57.6433 33.96 57.8113 33.48C57.9873 33 58.1393 32.48 58.2673 31.92C58.4033 31.36 58.5233 30.732 58.6273 30.036H60.9553ZM56.4673 30.036L56.7553 34.452C56.7633 34.58 56.8313 34.644 56.9593 34.644H57.6433L57.1513 36H55.6513C55.4593 36 55.2953 35.94 55.1593 35.82C55.0313 35.7 54.9513 35.556 54.9193 35.388L54.0913 30.036H56.4673Z" fill="#282828" fill-opacity="0.95"/>
<path d="M32.3229 11.1328C32.3273 11.1704 32.3319 11.2081 32.3353 11.2463C32.3337 11.2215 32.3319 11.1966 32.3298 11.1716L32.3229 11.1328ZM31.385 9.81679C31.4182 9.80859 31.4518 9.8008 31.485 9.79318C31.5591 9.77606 31.6326 9.75964 31.7054 9.74365L31.7056 9.74285C31.6512 9.75397 31.5449 9.77651 31.385 9.81679V9.81679ZM30.4357 22.7472C30.4357 22.7472 30.3322 22.75 30.2595 22.666L30.2308 22.6747C30.2717 22.7421 30.2519 22.7802 30.2519 22.7802C30.2552 22.7496 30.238 22.7035 30.2257 22.675L30.1911 22.6754C30.2088 22.7056 30.2347 22.7639 30.2045 22.8117C30.2168 22.7733 30.197 22.7077 30.1854 22.6749C30.1582 22.6703 30.1313 22.6568 30.1082 22.6307L30.0839 22.5996C30.0606 22.5658 30.042 22.5293 30.0269 22.4919L30.0099 22.4469L30.0062 22.4352L29.9972 22.406L29.9925 22.3898L29.9859 22.3648L29.9823 22.3505L29.9756 22.3206L29.9727 22.3064L29.9694 22.2896C29.9372 22.2789 29.9049 22.2472 29.8804 22.1803C29.8623 22.1305 29.8491 22.0756 29.8394 22.0237L29.837 22.0098L29.8335 21.9896L29.8296 21.9646L29.8288 21.9581C29.8228 21.9161 29.8191 21.879 29.817 21.8521L29.7994 21.8441L29.7863 21.837L29.7744 21.8287L29.7625 21.8192L29.7526 21.8091L29.7427 21.7972L29.7349 21.785L29.7275 21.7705L29.7223 21.7561L29.7189 21.7471L29.7159 21.7318C29.7014 21.6348 29.696 21.5463 29.7039 21.4672L29.7118 21.4145L29.7171 21.3938L29.7249 21.3639L29.7392 21.3283L29.7439 21.3171L29.7265 21.2977L29.7187 21.2871L29.7065 21.2652L29.7018 21.2555L29.6927 21.2227L29.6906 21.2063L29.6886 21.1847L29.6885 21.1655L29.6898 21.1421L29.6913 21.1241C29.6954 21.092 29.702 21.0605 29.7109 21.0274C29.7407 20.9164 29.7554 20.708 29.7602 20.6212C29.741 20.5884 29.7329 20.5433 29.7491 20.4895C29.7787 20.3923 29.7815 20.1324 29.7729 19.9304L29.7715 19.9026C29.7522 19.9319 29.7321 19.9622 29.7121 19.9922L29.6894 20.0265C29.6577 20.074 29.6251 20.122 29.5914 20.1708C29.0724 20.9233 28.4266 21.9458 27.939 22.1062C27.9028 22.1182 27.8673 22.1253 27.833 22.1273C27.8117 22.1286 27.7901 22.1285 27.7684 22.1274L27.7484 22.126L27.7004 22.1208L27.6795 22.1173L27.6172 22.1036C27.5898 22.0962 27.5672 22.0886 27.5448 22.0804L27.5223 22.0716L27.4743 22.0511L27.4509 22.0401L27.3911 22.0087L27.3814 22.0034C27.3587 21.9903 27.3361 21.9759 27.3133 21.9607L27.2905 21.945L27.242 21.9102L27.2186 21.8924C27.1987 21.8766 27.1789 21.8604 27.1592 21.8434L27.1494 21.8354C27.1267 21.8155 27.1039 21.7944 27.0815 21.7728L27.0615 21.7529C27.0446 21.7362 27.0276 21.7189 27.0107 21.701L26.991 21.6799C26.9696 21.6566 26.9485 21.6326 26.9276 21.6079C26.9012 21.5768 26.8785 21.5481 26.856 21.519L26.8436 21.5027C26.8248 21.4778 26.8063 21.4525 26.7877 21.4262L26.7758 21.4091C26.7309 21.3444 26.6873 21.2759 26.6454 21.2037C26.4685 20.8991 26.32 20.5304 26.2251 20.1113C25.9435 18.8632 26.3449 17.9256 26.3447 17.7355C26.3681 17.1521 26.4639 16.7725 26.4639 16.7725L26.4555 16.7657L26.46 16.7597C26.3923 16.5543 26.3669 15.9597 26.4004 15.3662L26.3903 15.3428L26.402 15.3394L26.4052 15.2852C26.4469 14.6543 26.5195 13.7494 26.7024 13.4558C26.6504 13.484 26.604 13.5132 26.5611 13.5421C26.5308 13.6253 26.4954 13.7159 26.4954 13.7159C26.4966 13.6689 26.5254 13.5999 26.5491 13.5504C26.5197 13.5709 26.4922 13.591 26.4667 13.6108C26.4619 13.6609 26.4467 13.698 26.4467 13.698C26.4467 13.6666 26.454 13.636 26.4603 13.6158L26.4183 13.6497L26.3717 13.7964C26.3701 13.7455 26.3831 13.7011 26.3975 13.6673L26.3581 13.7023L26.3017 13.8246C26.3075 13.7869 26.3181 13.7552 26.3298 13.7285C26.2977 13.7589 26.2695 13.7869 26.2451 13.8116C26.2315 13.8442 26.2188 13.876 26.2119 13.8968C26.2151 13.8726 26.2196 13.8514 26.2246 13.8319C26.207 13.8494 26.1915 13.8644 26.1772 13.8768L26.1788 13.9246L26.1686 13.8841L26.1515 13.897L26.164 13.9406L26.1427 13.9027L26.1286 13.9097C26.1277 13.9102 26.1267 13.9105 26.1258 13.9108C26.107 13.917 26.0849 13.9114 26.0625 13.8979C26.0313 13.9686 25.7089 14.7263 25.7239 15.9523C25.7429 16.3131 25.7509 16.4098 25.6454 16.4684C25.61 16.5692 25.4818 16.8784 25.0954 17.3881C24.7216 17.8804 24.5208 18.2491 24.3548 18.3038C24.3319 18.3113 24.3097 18.3129 24.2877 18.308C24.2534 18.394 24.1565 18.6507 24.1626 18.7837L24.1611 18.7996L24.1533 18.8127L24.1402 18.8236L24.1226 18.8315L24.1164 18.8336L24.1021 18.8363C24.1201 18.9001 24.1721 19.0687 24.2667 19.2549C24.2981 19.319 24.2809 19.3619 24.2452 19.3885C24.2822 19.4637 24.3752 19.6375 24.4762 19.7113L24.4912 19.7303L24.4963 19.7527L24.4948 19.7648C24.5909 19.8237 24.7398 20.02 24.7739 20.1076C24.7901 20.1496 24.7541 20.1877 24.7057 20.2139C24.7394 20.2475 24.7964 20.2998 24.8382 20.3123C24.7594 20.2932 24.7171 20.2498 24.6959 20.219L24.6424 20.2397C24.6755 20.2726 24.7346 20.3239 24.7956 20.3376C24.7956 20.3376 24.697 20.3283 24.6347 20.2417L24.6045 20.2475C24.6325 20.3148 24.6091 20.348 24.6091 20.348C24.6155 20.3204 24.6065 20.2779 24.5985 20.2481L24.5666 20.248C24.5791 20.2818 24.59 20.3345 24.5584 20.3734C24.5734 20.3404 24.5656 20.2823 24.5585 20.2464L24.5411 20.2351L24.5367 20.2241C24.5113 20.1568 24.4712 20.0683 24.4346 19.9912C24.4053 19.9298 24.3785 19.8754 24.3635 19.8454L24.3448 19.8445C24.2975 19.8392 24.2493 19.815 24.209 19.7597C24.1053 19.6172 24.0765 19.4725 24.0688 19.4137L24.0568 19.409L24.0468 19.3975L24.0429 19.3906C24.0004 19.3169 23.9323 19.044 23.9336 18.8575L23.9337 18.8474L23.9358 18.8095L23.9371 18.7963L23.9409 18.7725L23.9335 18.7602C23.9254 18.7443 23.9203 18.7261 23.9196 18.705C23.9191 18.6806 23.9234 18.652 23.9357 18.6187C23.9959 18.455 24.0569 18.3134 24.1153 18.2258L24.1354 18.197L24.1446 18.186L24.1654 18.1641C24.1556 18.1081 24.183 18.0616 24.2371 18.0054C24.3076 17.9318 24.9905 17.1954 25.3142 16.7181L25.3251 16.7021L25.3427 16.675L25.3428 16.6651L25.3492 16.6651L25.3716 16.6298L25.3957 16.5901L25.4202 16.5468L25.4301 16.5281L25.433 16.5221L25.4253 16.5188L25.4133 16.5133L25.3905 16.497L25.3814 16.4883L25.3591 16.4564C25.3485 16.4368 25.3421 16.4201 25.3365 16.4018L25.3324 16.3861L25.3223 16.3414L25.3186 16.3178L25.3128 16.2697L25.3104 16.2438C25.3089 16.224 25.3079 16.203 25.3072 16.1815L25.3064 16.1676C25.3029 16.014 25.3166 15.8225 25.3358 15.6167C25.3754 15.1955 25.5127 14.5829 25.7407 14.0502C25.7545 14.0121 25.7715 13.9745 25.7898 13.9389L25.8074 13.9022L25.8331 13.849L25.8659 13.7846L25.8889 13.741C25.9054 13.7097 25.9226 13.6798 25.9398 13.6499C25.9419 13.6267 25.9474 13.6036 25.9583 13.582C25.9859 13.5418 26.0128 13.5037 26.0392 13.4669L26.0654 13.4304L26.1074 13.372C26.2877 13.1284 26.4347 12.9627 26.5401 12.8559C26.6585 12.7352 26.7241 12.6892 26.7241 12.6892C26.7204 12.7167 26.7171 12.7438 26.7142 12.7705C26.76 12.4489 26.8581 12.178 26.9684 11.968L26.9643 11.9576C26.9334 11.6923 27.1319 11.4166 27.1772 11.3577L27.1686 11.3508C26.5784 11.5395 25.2293 10.0856 24.9397 9.60818C24.9214 9.5779 24.9041 9.54893 24.8876 9.5211L24.876 9.50126C24.8641 9.48103 24.8522 9.46085 24.8413 9.44216L24.8262 9.41551L24.8007 9.37027L24.7841 9.34013L24.7653 9.30556L24.749 9.27439L24.7349 9.24741L24.7192 9.21577L24.7093 9.19562L24.6956 9.16594L24.6881 9.14942L24.6769 9.12244L24.671 9.10821L24.6624 9.08457L24.6582 9.0726L24.6518 9.05176L24.6489 9.04147L24.6403 9.02883L24.6341 9.01869L24.6184 8.99178L24.6117 8.97734L24.5971 8.94326L24.5908 8.92472L24.578 8.88233L24.5747 8.87169C24.5562 8.79463 24.5428 8.69385 24.5435 8.55801C24.5388 8.3232 24.5499 8.04667 24.5698 7.76937C24.5214 7.65248 24.5336 7.53532 24.5336 7.53532C24.5479 7.62619 24.5622 7.70065 24.5714 7.7468C24.5772 7.67044 24.5834 7.59412 24.59 7.51841C24.5782 7.44125 24.5505 7.35668 24.5505 7.35668C24.5505 7.35668 24.5828 7.38564 24.5957 7.45632C24.6001 7.41015 24.6045 7.36442 24.6092 7.31954C24.5962 7.24769 24.5537 7.18253 24.5537 7.18253C24.5537 7.18253 24.5989 7.21333 24.6127 7.28467C24.6168 7.2456 24.6211 7.20719 24.6252 7.16929C24.6104 7.10437 24.5713 7.02963 24.5713 7.02963C24.5713 7.02963 24.6151 7.06302 24.629 7.1369C24.6322 7.10939 24.6353 7.08261 24.6385 7.05602C24.6169 6.9666 24.5621 6.82957 24.5621 6.82957C24.5621 6.82957 24.6227 6.91342 24.6414 7.03329L24.6461 6.99284C24.5884 6.88861 24.5872 6.79086 24.5872 6.79086C24.5872 6.79086 24.6235 6.90822 24.6479 6.97938C24.6585 6.89507 24.6692 6.81588 24.6801 6.74344C24.6148 6.57193 24.6614 6.47696 24.6614 6.47696C24.6614 6.47696 24.658 6.63455 24.681 6.73752C24.6899 6.67862 24.6986 6.62353 24.707 6.57509C24.6671 6.48631 24.6844 6.42041 24.6844 6.42041C24.6844 6.42041 24.6927 6.50272 24.7089 6.56461C24.7188 6.50913 24.7296 6.45755 24.7411 6.40951C24.6902 6.25782 24.726 6.20342 24.726 6.20342C24.726 6.20342 24.7324 6.32453 24.7431 6.40041C24.7539 6.35656 24.7651 6.31518 24.777 6.27731C24.7447 6.1975 24.7698 6.17403 24.7698 6.17403C24.7698 6.17403 24.7711 6.22725 24.7793 6.26997C24.8094 6.17364 24.842 6.09616 24.8742 6.03731C24.8658 6.02156 24.8555 5.98633 24.884 5.93503C24.7655 5.85078 24.3309 5.51502 24.1045 4.98448C24.0659 4.87441 24.0737 4.80955 24.1167 4.77479C24.0618 4.70245 23.9206 4.50668 23.8591 4.31963C23.846 4.27616 23.8573 4.23989 23.8825 4.21052C23.8397 4.19251 23.7538 4.12636 23.7025 3.87809C23.6802 3.76996 23.6968 3.70078 23.7796 3.67356C23.7839 3.67214 23.7884 3.67088 23.7931 3.66957C23.7666 3.6352 23.7228 3.56831 23.692 3.46743C23.6562 3.34991 23.6881 3.29607 23.7561 3.27372C23.7568 3.27348 23.7575 3.27324 23.7582 3.27302C23.7321 3.1769 23.6702 2.92531 23.7289 2.89057L23.7575 2.88138L23.7675 2.88113L23.7884 2.88176C23.7376 2.79727 23.677 2.71204 23.677 2.71204C23.677 2.71204 23.755 2.8049 23.792 2.88221L23.8037 2.8847L23.8277 2.89248C23.7953 2.82067 23.7251 2.73299 23.7251 2.73299C23.7251 2.73299 23.7939 2.77969 23.8354 2.89488L23.8675 2.91334L23.8773 2.91949L23.8834 2.92451C23.8661 2.86041 23.8326 2.74706 23.8326 2.74706C23.8431 2.75624 23.8828 2.83829 23.8866 2.92698L23.911 2.94895C23.9304 2.89101 23.9432 2.77182 23.9432 2.77182C23.9432 2.77182 23.955 2.86722 23.9137 2.95156L23.9194 2.95903L23.9272 2.96842L23.9369 2.97999L23.9407 2.98648L23.9498 3.00199L23.959 3.01792C23.9697 3.04393 23.9785 3.06936 23.982 3.09774C23.9917 3.18237 23.9869 3.24767 23.9804 3.29104L23.9918 3.29829L24.0041 3.30621L24.0345 3.33227L24.042 3.34151L24.0565 3.35922C24.0782 3.39166 24.0973 3.4355 24.1048 3.49372C24.1099 3.5314 24.1122 3.56293 24.1134 3.59137L24.1138 3.602L24.1145 3.62403L24.114 3.6467L24.1135 3.66394L24.111 3.68584L24.1076 3.70641L24.1047 3.71956L24.1012 3.73008L24.0981 3.73811L24.1037 3.74609C24.1338 3.79383 24.1392 3.856 24.1562 3.91319C24.1691 3.95719 24.178 4.00928 24.1842 4.05621L24.1876 4.08321L24.1925 4.13171L24.2045 4.13783L24.2168 4.14482L24.2267 4.15278L24.2375 4.16212L24.2464 4.1716L24.2536 4.1793C24.3172 4.25675 24.3638 4.41454 24.3876 4.61775L24.3897 4.63625L24.395 4.69074L24.3972 4.71695L24.4005 4.76832C24.4255 4.78705 24.4432 4.8173 24.4705 4.86852C24.4774 4.88168 24.4864 4.89818 24.4966 4.9173L24.5153 4.95097C24.5972 5.09993 24.7456 5.35656 24.8807 5.54235L24.9099 5.58382L24.9183 5.59602L24.9497 5.64194L24.9655 5.66648L24.989 5.7042L25.002 5.72613L25.0193 5.7563L25.0294 5.77499L25.0416 5.79839L25.0487 5.81361L25.0569 5.8306L25.0617 5.84258L25.0661 5.85357L25.0693 5.8621C25.0761 5.88352 25.0826 5.89592 25.0883 5.91044C25.1042 5.93962 25.1173 5.99083 25.1375 6.07577C25.2082 6.37363 25.1674 7.03308 25.0748 7.65875C24.9819 8.28423 24.9368 8.74296 24.9567 8.88351C24.9668 8.95817 24.9444 9.00703 24.921 9.03649C25.1706 9.30549 25.4261 9.51704 25.6604 9.68051C25.6251 9.6392 25.631 9.61405 25.631 9.61405C25.631 9.61405 25.6622 9.66329 25.7011 9.70905C25.7569 9.74691 25.8111 9.78179 25.8638 9.81433C25.7503 9.71207 25.7163 9.63119 25.7163 9.63119C25.7163 9.63119 25.8101 9.74744 25.8759 9.82183C25.9024 9.83794 25.9285 9.85371 25.9541 9.86847C25.8702 9.79864 25.8834 9.73808 25.8834 9.73808C25.8834 9.73808 25.9185 9.82537 25.9788 9.88282C26.0136 9.90278 26.0474 9.92142 26.08 9.9388C26.0071 9.87891 26.0133 9.84597 26.0133 9.84597C26.0133 9.84597 26.0643 9.90858 26.1205 9.9599C26.1678 9.98438 26.2131 10.0065 26.2545 10.0252C26.1868 9.96876 26.1616 9.90633 26.1616 9.90633C26.1616 9.90633 26.2289 9.98747 26.2908 10.0414C26.3515 10.068 26.4049 10.0889 26.4485 10.1035C26.3535 10.0526 26.33 9.99403 26.33 9.99403C26.33 9.99403 26.4145 10.0737 26.4825 10.1153C26.6458 10.1712 26.7734 10.2276 26.8445 10.2616L26.8585 10.1975L26.8629 10.179C26.8706 10.1502 26.8789 10.1219 26.8884 10.0949L26.8948 10.0771L26.9204 10.0122L26.9289 9.99235C26.9404 9.96726 26.9521 9.9428 26.9645 9.91926L26.9709 9.90802L27.0052 9.84921L27.0169 9.83059L27.0577 9.77032C27.0747 9.74693 27.0897 9.72769 27.1051 9.70881L27.1183 9.69301L27.1574 9.64829L27.1626 9.6426L27.1668 9.63769L27.1757 9.62892L27.204 9.59944L27.2124 9.5913L27.2224 9.58169L27.241 9.56386L27.2498 9.5558L27.2678 9.53959L27.2778 9.53068L27.2864 9.52339L27.3079 9.50508L27.2723 9.51117C27.1579 9.60128 27.0196 9.66668 26.9546 9.69464C27.0359 9.65687 27.1597 9.57538 27.2465 9.51567C27.1786 9.52652 27.1142 9.53414 27.054 9.53847C27.0087 9.56578 26.9641 9.59359 26.9287 9.61883C26.9574 9.59625 26.9951 9.56863 27.0401 9.53906C27.0143 9.54053 26.9891 9.54179 26.9648 9.54229C26.8956 9.57981 26.8365 9.6037 26.7905 9.61884C26.7227 9.64116 26.6835 9.64443 26.6835 9.64443C26.7497 9.62266 26.8317 9.58419 26.9115 9.54248C26.8413 9.54192 26.7775 9.53645 26.7192 9.52776C26.6889 9.53936 26.6611 9.54899 26.6361 9.55722C26.5517 9.58498 26.5012 9.59504 26.5012 9.59504C26.5563 9.5762 26.6198 9.55063 26.6857 9.52239L26.6245 9.50996C26.6201 9.51164 26.6157 9.5131 26.6114 9.5145C26.3455 9.60197 26.1907 9.59201 26.1907 9.59201C26.3173 9.57754 26.4565 9.54135 26.5851 9.5002C26.5514 9.49116 26.5203 9.481 26.4915 9.47008C25.9291 9.60522 25.7866 9.35206 25.7866 9.35206C25.9702 9.50456 26.2374 9.50403 26.4689 9.46115C26.3664 9.41897 26.2976 9.36921 26.2558 9.33143C26.0489 9.31309 25.9217 9.22237 25.8731 9.07484L25.8603 9.02379L25.8568 9.00291L25.8526 8.96847L25.8505 8.9408L25.85 8.90913L25.8502 8.87718C25.8635 8.5676 26.055 8.13031 26.435 7.77599C26.4983 7.71698 26.5595 7.66593 26.6185 7.62099L26.6474 7.59974C26.6739 7.58026 26.7 7.56231 26.7253 7.54557L26.7609 7.52259L26.7976 7.50116L26.8325 7.48099L26.8673 7.46301L26.9011 7.44649L26.9338 7.43174L26.9668 7.41832L26.9973 7.40687L27.03 7.39613L27.0481 7.39041L27.0608 7.3649L27.0971 7.29673L27.1057 7.28127C27.1221 7.25247 27.14 7.22268 27.1589 7.19303L27.1698 7.1761C27.1877 7.14842 27.2066 7.12089 27.2266 7.093L27.2318 7.08521C27.284 7.01322 27.343 6.94061 27.4092 6.87106L27.3647 6.84587L27.4092 6.87106L27.4372 6.84264C27.3985 6.78558 27.3028 6.62335 27.4064 6.54334L27.4134 6.53872C27.1291 6.38606 27.0265 6.38773 26.9924 6.39896C26.9805 6.40287 26.9768 6.40807 26.9768 6.40807C26.9768 6.40807 26.9828 6.39506 27.006 6.38746C27.0505 6.37281 27.1597 6.37834 27.4144 6.53816L27.4228 6.53305C27.253 6.2591 27.1858 6.27326 27.1796 6.27529C27.1794 6.27536 27.1792 6.27543 27.1792 6.27543C27.1792 6.27543 27.1807 6.27444 27.1837 6.27347C27.2024 6.26733 27.2809 6.26306 27.424 6.53242L27.4347 6.52654L27.4405 6.52416L27.4656 6.51593L27.4992 6.51117C27.607 6.50804 27.7203 6.57805 27.7458 6.59495C27.8213 6.55231 27.8988 6.51369 27.9818 6.48381C27.9866 6.48199 27.9917 6.48032 27.9968 6.47865C28.0346 6.46623 28.074 6.45677 28.1142 6.44894L28.1718 6.43841L28.1848 6.43648L28.2115 6.43191C28.2244 6.39254 28.2671 6.27871 28.3438 6.21974L28.3705 6.20251L28.4003 6.19014L28.4269 6.18466C28.3874 5.89808 28.451 5.85653 28.4695 5.85046C28.4725 5.84948 28.4741 5.84942 28.4741 5.84942C28.4741 5.84942 28.4739 5.84949 28.4737 5.84956C28.4677 5.85151 28.4072 5.87913 28.4292 6.18438L28.4387 6.18335L28.4474 6.18401C28.5546 5.91779 28.6366 5.85123 28.68 5.83693C28.7029 5.8294 28.7153 5.83612 28.7153 5.83612C28.7153 5.83612 28.7095 5.83428 28.6976 5.83818C28.6643 5.84913 28.5833 5.90647 28.4494 6.1843C28.5745 6.19115 28.6006 6.37767 28.6058 6.43899L28.6459 6.44453L28.6529 6.4216L28.6463 6.44439C28.742 6.45741 28.8335 6.47485 28.9154 6.49382L28.9681 6.50671C28.9945 6.51347 29.0194 6.51981 29.0429 6.52636L29.0586 6.53056L29.107 6.54464L29.1205 6.54862L29.1613 6.5612L29.1728 6.56468L29.2057 6.5754L29.215 6.57867L29.238 6.58655L29.2468 6.58953L29.2587 6.59379L29.2654 6.59627L29.2763 6.60018L29.2874 6.59584L29.318 6.5839L29.3499 6.57316L29.3827 6.56284L29.4181 6.55309L29.4541 6.54475L29.4929 6.53641L29.5323 6.52977L29.5744 6.52321L29.6176 6.51834C29.6462 6.51526 29.676 6.51295 29.7067 6.51107L29.7477 6.5088C29.8211 6.50599 29.9008 6.50693 29.9866 6.51218C30.5053 6.54511 30.9311 6.76153 31.1358 6.99024L31.1596 7.01825L31.1773 7.04076L31.195 7.06587L31.212 7.0926L31.2238 7.11262L31.2459 7.15991C31.3064 7.31592 31.2546 7.47934 31.0757 7.63541C31.0683 7.68002 31.0577 7.72777 31.0408 7.77784C31.2981 7.61918 31.4073 7.46473 31.4538 7.37048C31.3792 7.56297 31.2069 7.70914 31.0288 7.8099L30.9972 7.88307C31.23 7.77931 31.3201 7.70912 31.3452 7.6866C31.2559 7.77735 31.12 7.85366 30.9811 7.91435C30.9673 7.9395 30.9515 7.96487 30.934 7.9905C30.9391 7.98883 30.9442 7.98716 30.9493 7.98548C31.0119 7.9649 31.0686 7.94367 31.1105 7.92261C31.1105 7.92261 31.0403 7.9628 30.9215 8.0082C30.8854 8.05849 30.8417 8.10897 30.7873 8.15871C30.8475 8.14453 30.9041 8.12963 30.9493 8.11477C30.9743 8.10654 30.9958 8.0983 31.0124 8.09026C31.0124 8.09026 30.9498 8.124 30.8421 8.15943C30.816 8.16801 30.7873 8.17673 30.7565 8.18501C30.7298 8.20809 30.7002 8.23046 30.669 8.25267C30.7651 8.2405 30.8551 8.22683 30.8896 8.21546C30.8896 8.21546 30.8795 8.21972 30.8604 8.226C30.8206 8.23911 30.7419 8.26148 30.636 8.27595C30.5983 8.30075 30.5588 8.32548 30.5145 8.34942C30.6188 8.33642 30.7414 8.31694 30.8219 8.29043C30.8355 8.28597 30.8476 8.28128 30.8585 8.27653C30.8585 8.27653 30.8399 8.28851 30.793 8.30393C30.7379 8.32206 30.6436 8.34487 30.4957 8.35886C30.4715 8.37153 30.4461 8.38434 30.4196 8.39679L30.449 8.39603L30.5011 8.39597L30.555 8.39698L30.6046 8.40036L30.6177 8.40117C30.6684 8.39365 30.7176 8.38542 30.7611 8.37626C30.7611 8.37626 30.7601 8.37661 30.7579 8.3773C30.7478 8.38065 30.7124 8.39181 30.656 8.40473L30.7025 8.411L30.7505 8.41839L30.7947 8.42774L30.8404 8.43801L30.8817 8.44996L30.9251 8.46331L30.9634 8.47743L31.0048 8.49353L31.0397 8.50947L31.0793 8.52852L31.1117 8.54622L31.1493 8.56758L31.1785 8.58653L31.2144 8.61057L31.2406 8.63028L31.2751 8.65713L31.2841 8.66469L31.2895 8.65309L31.315 8.59763L31.3203 8.58674L31.3423 8.54134L31.3552 8.51575L31.3743 8.47879L31.3933 8.44232C31.4175 8.39783 31.4413 8.35532 31.4676 8.31085C31.4924 8.23498 31.5046 8.11972 31.5046 8.11972C31.5046 8.11972 31.5251 8.17926 31.4861 8.27923C31.5098 8.23981 31.5368 8.18922 31.5657 8.12983C31.5773 8.04871 31.5759 7.94376 31.5759 7.94376C31.5759 7.94376 31.5973 8.00745 31.5828 8.09398C31.6021 8.05272 31.622 8.00682 31.6422 7.95733C31.6516 7.88233 31.6494 7.80152 31.6494 7.80152C31.6494 7.80152 31.6756 7.82244 31.6592 7.91543C31.6726 7.88127 31.6861 7.8452 31.6995 7.80801C31.7083 7.72477 31.6781 7.63515 31.6781 7.63515C31.6781 7.63515 31.7279 7.67288 31.709 7.78051C31.7189 7.75267 31.7286 7.7237 31.7384 7.69403C31.7398 7.59493 31.7364 7.44522 31.7364 7.44522C31.7364 7.44522 31.7629 7.52856 31.7426 7.68046C31.7616 7.62174 31.7802 7.56035 31.798 7.49523C31.7977 7.43512 31.7895 7.37717 31.7895 7.37717C31.7895 7.37717 31.8105 7.39251 31.8106 7.44706C31.8824 7.17045 31.9395 6.84389 31.9544 6.47851C31.9174 6.4696 31.8686 6.447 31.8281 6.38326C31.7518 6.26408 31.4193 5.94433 30.9424 5.52879C30.466 5.11352 30.0062 4.63821 29.8662 4.36548C29.8281 4.29111 29.8053 4.24473 29.7977 4.21233L29.7866 4.16704L29.7778 4.15378L29.7707 4.13314L29.7685 4.12567L29.7615 4.10151L29.7592 4.09151L29.7512 4.05735L29.7487 4.04622L29.74 3.99897L29.7386 3.99122C29.7301 3.93947 29.7216 3.87434 29.7152 3.79373C29.6972 3.5645 29.6431 3.2731 29.6091 3.10605L29.6044 3.08393C29.5985 3.05611 29.5935 3.03224 29.5894 3.01414C29.5769 2.95758 29.5708 2.92329 29.5776 2.89318L29.5455 2.85008L29.5347 2.83492C29.3936 2.63891 29.3089 2.46298 29.307 2.3493L29.307 2.34206L29.3078 2.32516L29.3095 2.31405L29.3123 2.29977L29.3167 2.28732L29.3206 2.27713L29.3165 2.26607L29.3011 2.2435L29.2795 2.21148C29.254 2.17164 29.2268 2.12623 29.2082 2.08458C29.1839 2.03003 29.1477 1.97939 29.1395 1.92285L29.1383 1.91362L29.1278 1.90747L29.1033 1.89001L29.0778 1.86608L29.0686 1.85598L29.0514 1.83658L29.0385 1.82092L29.0309 1.81146C29.014 1.78938 28.9955 1.76385 28.9747 1.73204C28.9428 1.68282 28.9286 1.63759 28.9249 1.5957L28.9237 1.57923L28.9238 1.55882L28.9291 1.52547L28.9344 1.50754L28.9378 1.49706L28.9197 1.48054L28.9014 1.46268L28.8945 1.45604C28.8688 1.42887 28.8399 1.39458 28.8105 1.35085C28.7945 1.32709 28.7848 1.30193 28.7779 1.27657L28.7731 1.25777L28.7698 1.23918L28.7685 1.23234L28.7623 1.21916L28.7682 1.20665L28.7675 1.19588C28.6815 1.15861 28.6284 1.07814 28.6284 1.07814C28.6284 1.07814 28.7158 1.16068 28.7675 1.19426L28.7724 1.15937C28.7176 1.0891 28.6941 1.00127 28.6965 0.987126C28.6965 0.987126 28.7445 1.09524 28.773 1.15543L28.7744 1.14818L28.7783 1.13517L28.7881 1.10761L28.7906 1.10164C28.7474 0.986993 28.7691 0.907032 28.7691 0.907032C28.7691 0.907032 28.7728 1.01895 28.7923 1.09847L28.8077 1.07374L28.815 1.06384C28.7932 0.981076 28.7918 0.859732 28.7918 0.859732C28.7918 0.859732 28.8012 0.963926 28.8174 1.06117L28.8325 1.04756L28.8408 1.04083L28.8683 1.02944C28.9354 1.01767 29.0521 1.24888 29.0947 1.33909C29.0993 1.33735 29.1039 1.3356 29.1084 1.33414C29.1699 1.31391 29.2251 1.33814 29.2714 1.44399C29.3136 1.54068 29.3236 1.61983 29.3257 1.66319C29.334 1.65927 29.3421 1.65592 29.3501 1.65327C29.4248 1.62871 29.4795 1.67089 29.5302 1.76339C29.6526 1.98546 29.6301 2.09146 29.6089 2.13264C29.6473 2.13874 29.6797 2.15924 29.6979 2.20103C29.7727 2.38277 29.7926 2.62334 29.7977 2.71372C29.853 2.71241 29.9009 2.75661 29.9433 2.8654C30.1159 3.41596 30.0031 3.95386 29.9681 4.09445C30.0228 4.11488 30.0378 4.14836 30.0416 4.16582C30.1044 4.18945 30.1796 4.22725 30.2649 4.28093C30.2436 4.24321 30.2102 4.20172 30.2102 4.20172C30.2102 4.20172 30.2442 4.20316 30.2719 4.28496C30.3052 4.30631 30.3403 4.33014 30.3769 4.35629C30.3358 4.29155 30.2622 4.19561 30.2622 4.19561C30.2622 4.19561 30.3245 4.21354 30.3843 4.36159C30.4245 4.39099 30.4664 4.42334 30.5102 4.4593C30.4822 4.4015 30.4351 4.33387 30.4351 4.33387C30.4351 4.33387 30.491 4.37309 30.5182 4.4658C30.5562 4.49709 30.5981 4.53318 30.6429 4.57209C30.5934 4.47876 30.4891 4.36176 30.4891 4.36176C30.4891 4.36176 30.5861 4.40385 30.6478 4.57633C30.7031 4.62443 30.7629 4.6776 30.8261 4.73529C30.7984 4.66546 30.7496 4.5527 30.7496 4.5527C30.7496 4.5527 30.8121 4.6277 30.8358 4.74426L30.8658 4.77166C30.8023 4.66885 30.7938 4.56578 30.7938 4.56578C30.7938 4.56578 30.8412 4.7057 30.8829 4.78733C30.9025 4.80548 30.9221 4.82363 30.9423 4.84227C30.905 4.77747 30.9165 4.7238 30.9165 4.7238C30.9165 4.7238 30.9356 4.80607 30.9665 4.865C30.9942 4.89077 31.0223 4.91739 31.0507 4.94436C31.0153 4.88126 31.0297 4.82852 31.0297 4.82852C31.0297 4.82852 31.0394 4.90519 31.0759 4.96837C31.1087 4.9995 31.1418 5.03148 31.1751 5.0641C31.1391 5.0017 31.145 4.959 31.145 4.959C31.145 4.959 31.1789 5.04131 31.22 5.10766C31.2743 5.16075 31.3288 5.21496 31.3828 5.2696C31.3598 5.22843 31.3222 5.16258 31.2737 5.08389C31.2737 5.08389 31.3591 5.16473 31.3984 5.28506C31.5936 5.48341 31.7817 5.68646 31.9307 5.86814C32.0192 5.97067 32.0746 6.056 32.11 6.12656L32.1169 6.14044L32.1307 6.17173L32.1412 6.19851L32.1498 6.22613L32.1558 6.24733L32.1607 6.27501L32.163 6.28902L32.1635 6.30148L32.1712 6.31839L32.1774 6.33228L32.1839 6.34912L32.1911 6.36877L32.1963 6.38463L32.205 6.41175L32.2089 6.42499L32.2191 6.46169L32.2214 6.47099L32.2337 6.51896C32.2582 6.62123 32.2834 6.75208 32.3114 6.92368C32.4016 7.47794 32.3188 9.47908 31.7383 9.69952L31.736 9.72095C31.7552 9.72442 32.1488 9.79805 32.3079 10.0444L32.3144 10.0535C32.514 10.1323 32.7375 10.2538 32.9576 10.4314L32.9726 10.4314L32.9952 10.4315L33.0092 10.4317L33.0351 10.4326L33.0548 10.4334L33.0828 10.4349L33.1102 10.4367L33.1386 10.4388L33.1582 10.4403C33.3268 10.4551 33.5849 10.492 33.9427 10.5816C33.9845 10.5922 34.0276 10.6031 34.0721 10.6149C34.0945 10.6245 34.1136 10.6383 34.1303 10.6548C34.1627 10.6662 34.1956 10.6781 34.2282 10.6908L34.2729 10.7089L34.3417 10.7373L34.3928 10.7597L34.4316 10.7771C34.469 10.7921 34.5066 10.81 34.5421 10.8299C35.0614 11.087 35.5637 11.464 35.8671 11.7584C36.0156 11.9026 36.1502 12.0388 36.2472 12.1586L36.2568 12.1706L36.2941 12.219L36.3087 12.24L36.3357 12.2807L36.3483 12.301L36.3692 12.3409L36.3768 12.3562L36.394 12.4058L36.3953 12.4153L36.3989 12.4504L36.3969 12.4646L36.3909 12.4898L36.3845 12.5032L36.3813 12.51L36.4082 12.5209L36.4544 12.5377L36.4913 12.55L36.5379 12.5644L36.5428 12.5601L36.5499 12.5681L36.5728 12.5747L36.6306 12.5905C37.1068 12.7166 37.871 12.8168 38.1533 12.8504L38.1813 12.8536C38.2168 12.8579 38.2423 12.8604 38.2542 12.8617C38.3321 12.8698 38.3829 12.887 38.4119 12.9359L38.4414 12.9392L38.4604 12.9426L38.4903 12.9501C38.5915 12.9791 38.7298 13.0472 38.8821 13.1323C38.9127 13.1496 38.9347 13.1686 38.9501 13.1881L38.9721 13.2286L38.9753 13.2377L38.9777 13.2529L38.9953 13.2678L39.0071 13.2793L39.0318 13.3051L39.0389 13.3126C39.1754 13.4703 39.3164 13.7675 39.3034 13.8121L39.2969 13.8238L39.3054 13.8374L39.3102 13.845L39.3154 13.8543L39.321 13.8641L39.3263 13.8739L39.3333 13.8873L39.3377 13.8963L39.3461 13.914C39.3774 13.9836 39.407 14.072 39.4152 14.1777C39.4206 14.2462 39.3995 14.2958 39.3682 14.3292L39.3535 14.343C39.3599 14.3683 39.37 14.4097 39.3828 14.4579L39.3866 14.4721L39.3899 14.4844C39.4128 14.5704 39.4416 14.6715 39.4675 14.7437L39.4713 14.7546L39.4656 14.7745C39.4835 14.8066 39.5154 14.8559 39.5486 14.8709C39.4989 14.862 39.4731 14.815 39.4605 14.7812L39.4364 14.8022C39.4495 14.8299 39.4703 14.8681 39.493 14.885C39.493 14.885 39.4539 14.8747 39.4314 14.8056L39.4047 14.8207C39.4137 14.9268 39.3445 14.9978 39.3445 14.9978C39.3821 14.9478 39.3938 14.8706 39.3975 14.8239L39.3434 14.8431C39.3475 14.8805 39.3434 14.9408 39.2959 15.0066C39.3194 14.97 39.3289 14.8933 39.3326 14.8458C39.279 14.8572 39.2268 14.8515 39.2119 14.809C39.1806 14.7203 39.1667 14.4745 39.2012 14.3671L39.1956 14.3629L39.1837 14.3447L39.1807 14.3143C39.2094 14.1927 39.1672 14.0005 39.1468 13.9191C39.1022 13.9221 39.0613 13.9005 39.0435 13.8315C38.9946 13.6284 38.9248 13.4663 38.8971 13.4063L38.8851 13.4128L38.8768 13.4163L38.8664 13.4197L38.8587 13.4213L38.8489 13.422L38.8424 13.4215L38.8326 13.4184L38.8167 13.4056C38.7351 13.3003 38.4946 13.168 38.4127 13.1246C38.3968 13.1458 38.375 13.1602 38.3472 13.1693C38.1789 13.2247 37.791 13.0785 37.2007 12.9492C36.576 12.813 36.2775 12.6608 36.1851 12.6069C36.0665 12.6307 36.0096 12.5522 35.7898 12.2654C35.0063 11.3254 34.2701 10.9576 34.1982 10.9232C34.1895 10.9489 34.1755 10.9684 34.1557 10.9749L34.1401 10.9788L34.1485 11.0215L34.13 10.9801L34.1085 10.9813L34.1269 11.0188L34.0973 10.9814C34.0784 10.9811 34.0566 10.98 34.0318 10.9781C34.0483 10.9898 34.0654 11.003 34.0835 11.0189C34.0648 11.0078 34.0347 10.9919 34.0031 10.9759C33.9686 10.9732 33.9293 10.9701 33.8851 10.9678C33.911 10.9804 33.9395 10.9975 33.9687 11.0226L33.8465 10.9663L33.7939 10.9656C33.8264 10.9817 33.8652 11.0067 33.897 11.0462L33.7668 10.9656L33.712 10.9667C33.7301 10.9783 33.7554 10.9959 33.7757 11.0205C33.7757 11.0205 33.7403 11.0021 33.7039 10.9672C33.6717 10.9685 33.6378 10.9712 33.6028 10.9748C33.6529 10.9972 33.7194 11.0308 33.7512 11.0658C33.7512 11.0658 33.6653 11.0197 33.5883 10.9765C33.5531 10.9801 33.5165 10.9854 33.4784 10.9923L33.4897 11.008L33.4965 11.0175C33.8345 11.1227 34.4816 11.7674 34.926 12.2227L34.9635 12.2616L34.9753 12.2568L34.9824 12.2812C35.3961 12.7131 35.7629 13.1843 35.8421 13.3852L35.8492 13.3866L35.847 13.3972C35.847 13.3972 36.1715 13.6249 36.5703 14.0558C36.6937 14.2015 37.6267 14.6562 38.2126 15.7942C38.4095 16.1763 38.5306 16.5552 38.5868 16.9031L38.5884 16.9122C38.5945 16.9507 38.5998 16.9891 38.6045 17.0268L38.6062 17.044C38.6098 17.0759 38.613 17.1077 38.6155 17.1389L38.6179 17.1749C38.6197 17.201 38.6212 17.2268 38.6221 17.2524L38.6232 17.2859C38.6241 17.3207 38.6245 17.3549 38.624 17.3889L38.6232 17.4079C38.6225 17.4358 38.6214 17.4633 38.6197 17.4903L38.6172 17.5249C38.6155 17.5474 38.6132 17.5698 38.6108 17.5916L38.6073 17.624C38.6033 17.6546 38.5989 17.6847 38.5937 17.7141L38.5905 17.7308C38.5857 17.7554 38.5808 17.7792 38.5754 17.8028L38.5677 17.8334L38.552 17.8902L38.5436 17.9182C38.5353 17.9444 38.5265 17.9698 38.517 17.9944L38.5121 18.0059L38.4852 18.0679L38.4734 18.0919L38.4483 18.1386L38.4357 18.1603L38.3967 18.2203L38.3923 18.2261L38.352 18.2764L38.3371 18.2927L38.3024 18.3279L38.2871 18.342C38.2704 18.3569 38.2532 18.371 38.2351 18.3839C38.1983 18.4106 38.1543 18.432 38.1045 18.4484C37.5912 18.6173 36.4374 18.2666 35.5496 18.0344C35.4918 18.0195 35.4351 18.0042 35.3796 17.989L35.3653 17.9847C35.4788 18.1241 35.6093 18.2687 35.6806 18.3148C35.7277 18.345 35.7509 18.3849 35.7573 18.4221C35.7817 18.4479 35.8201 18.4875 35.8638 18.53C35.9275 18.5924 36.0018 18.6612 36.0579 18.7001C36.0858 18.7193 36.1111 18.739 36.1333 18.7594L36.1493 18.775L36.164 18.7906L36.1764 18.8053L36.1896 18.824L36.1979 18.8366L36.2124 18.8683L36.2148 18.8779L36.2202 18.9035L36.2209 18.9163L36.2196 18.9418C36.249 18.9546 36.2774 18.9725 36.3046 18.9935L36.3439 19.0274C36.4049 19.0858 36.4581 19.1573 36.5098 19.2402L36.5169 19.2546L36.5205 19.2619L36.5263 19.2783L36.5297 19.2922L36.5319 19.3082L36.532 19.322L36.5309 19.3379L36.5284 19.3509L36.5243 19.3665L36.5194 19.3787L36.5126 19.3936L36.5204 19.4111C36.5347 19.4315 36.5473 19.45 36.5609 19.4711C36.601 19.5331 36.6463 19.6115 36.675 19.6887C36.6994 19.7551 36.6955 19.8004 36.6779 19.8291L36.6848 19.8413L36.6948 19.8597L36.7193 19.9086L36.723 19.916L36.7346 19.9414L36.7382 19.9501L36.7594 20.004L36.7654 20.0208C36.7775 20.059 36.787 20.0985 36.7908 20.1366L36.7927 20.1793C36.792 20.2144 36.7802 20.242 36.7626 20.2628C36.7748 20.295 36.8024 20.3583 36.8367 20.3796C36.7825 20.3626 36.7646 20.3012 36.7586 20.2671L36.7319 20.289C36.7411 20.3188 36.7578 20.3653 36.7801 20.3868C36.7801 20.3868 36.7403 20.3701 36.7278 20.292L36.7005 20.304C36.6992 20.4151 36.6186 20.4802 36.6186 20.4802C36.6649 20.4322 36.6861 20.3502 36.6947 20.3057L36.6458 20.3129L36.6419 20.3189L36.6364 20.3144C36.6381 20.3501 36.6309 20.4162 36.5689 20.482C36.6002 20.4451 36.6203 20.3562 36.6287 20.3124C36.5727 20.307 36.5248 20.2735 36.5291 20.2168C36.5394 20.0886 36.5199 19.9522 36.5059 19.8755C36.4864 19.8697 36.4668 19.8517 36.4555 19.8065C36.4206 19.6904 36.3876 19.5652 36.3709 19.5008L36.3601 19.5023L36.3481 19.5016L36.3377 19.5005L36.3252 19.4962L36.3171 19.493L36.3047 19.4838L36.2992 19.4794L36.2852 19.4588C36.2212 19.3222 36.1279 19.1688 36.0838 19.0983C36.0317 19.1042 35.9725 19.0764 35.9183 19.0002C35.8359 18.8838 35.6932 18.6522 35.6293 18.5474C35.5618 18.5534 35.4824 18.5337 35.4061 18.4396C35.2795 18.2669 35.1583 18.0905 35.0351 17.9154C35.007 17.8757 34.981 17.8774 34.9377 17.8657C34.8799 17.85 34.8238 17.8223 34.7677 17.8005C34.6349 17.7481 34.5022 17.6957 34.3692 17.6435C34.276 17.6067 34.1826 17.5699 34.0893 17.5332C34.0128 17.5028 33.9398 17.4589 33.8643 17.4308C33.9423 17.5164 33.9427 17.6283 33.9217 17.7352C33.947 17.6064 33.8834 17.4817 33.8588 17.4399C33.8148 17.5582 33.7633 17.6781 33.7027 17.7996C33.7027 17.7996 33.6715 17.9419 33.6059 18.1431C33.6214 18.1832 33.6263 18.2065 33.6239 18.2073C33.622 18.2079 33.6142 18.1907 33.6032 18.1515C33.5809 18.22 33.5547 18.2947 33.5244 18.3732C33.5366 18.4182 33.5401 18.444 33.538 18.4447C33.5359 18.4454 33.5293 18.4255 33.521 18.3814C33.4967 18.4435 33.4702 18.5078 33.4406 18.5723C33.455 18.6701 33.4695 18.8406 33.4287 18.9739C33.4513 18.859 33.4436 18.6877 33.4356 18.584C33.4005 18.6609 33.3614 18.7387 33.3187 18.8143C33.3227 18.9196 33.3206 19.0744 33.2839 19.1938C33.3046 19.0909 33.3103 18.9368 33.3112 18.8273C33.266 18.907 33.2164 18.9843 33.1625 19.0561C33.1553 19.1484 33.1406 19.2644 33.1104 19.3626C33.1275 19.2775 33.1419 19.1641 33.1521 19.0696C33.099 19.1393 33.0415 19.2027 32.9798 19.2584C32.9758 19.315 32.9581 19.3998 32.8959 19.5006C32.9301 19.4347 32.9518 19.3407 32.9644 19.2724C32.886 19.3406 32.8014 19.3956 32.7095 19.4312C32.7014 19.4344 32.6929 19.4373 32.6847 19.44C32.5543 19.4829 32.3991 19.4799 32.2356 19.4484C32.285 19.4924 32.3495 19.5433 32.4082 19.5718C32.3094 19.533 32.246 19.483 32.207 19.4424C32.1138 19.4227 32.0181 19.3945 31.9229 19.3602C31.9913 19.433 32.082 19.5273 32.1542 19.5911C32.0609 19.5239 31.9696 19.4272 31.9068 19.3542C31.8154 19.3206 31.7248 19.2824 31.6374 19.2417C31.7013 19.3265 31.8209 19.4787 31.914 19.561C31.7948 19.475 31.6835 19.3204 31.6283 19.2374C31.5471 19.1992 31.4689 19.1594 31.3954 19.1196C31.4399 19.1921 31.56 19.3791 31.6657 19.4733C31.5306 19.3754 31.4264 19.1874 31.3908 19.1171C31.3283 19.0836 31.2699 19.0503 31.2163 19.0188C31.2438 19.0782 31.3471 19.2891 31.4611 19.3899C31.316 19.2855 31.2342 19.0745 31.214 19.0174C31.1383 18.973 31.0726 18.9321 31.0206 18.8983C31.0459 18.9664 31.1209 19.1494 31.2283 19.2444C31.0915 19.1458 31.0335 18.9615 31.0166 18.8962C30.9366 18.8443 30.8889 18.8106 30.8889 18.8106C30.8377 18.7842 30.7885 18.7576 30.7399 18.73C30.7545 18.7821 30.7994 18.9121 30.9036 19.0045C30.7699 18.9084 30.7417 18.7775 30.7355 18.7274C30.6708 18.6906 30.6078 18.6528 30.5476 18.6138C30.5576 18.6536 30.6006 18.8001 30.7147 18.9013C30.5693 18.7962 30.5486 18.6505 30.5456 18.6129C30.5238 18.5987 30.5062 18.5773 30.4875 18.5835C30.4839 18.5847 30.4802 18.5868 30.4765 18.5901L30.4625 18.6601C30.4636 18.708 30.4857 18.7464 30.5209 18.7777C30.4923 18.7524 30.4639 18.7273 30.4356 18.7022C30.3596 18.8518 30.2851 19.0019 30.2085 19.151C30.1692 19.2272 30.1291 19.3033 30.0879 19.3786C30.0664 19.4177 30.0446 19.457 30.0224 19.4959L29.9657 19.5923C29.982 19.7532 30.0197 20.1351 30.0394 20.4076C30.0419 20.5281 29.994 20.5946 29.939 20.6339C29.9581 20.7549 29.9992 21.024 30.0113 21.1658C30.0196 21.2589 29.9925 21.3187 29.9492 21.3477C29.9613 21.4301 29.9895 21.6073 30.0288 21.753L30.0314 21.7781L30.0266 21.8001L30.0157 21.8191L30.0111 21.8239L29.9992 21.835L29.9929 21.8392C30.0197 21.9 30.0758 22.0171 30.1241 22.1282C30.1446 22.17 30.141 22.1962 30.13 22.2136C30.1689 22.2807 30.2426 22.3975 30.3333 22.4887C30.3736 22.5292 30.3586 22.5858 30.3191 22.6262C30.3541 22.6541 30.427 22.7086 30.4748 22.7167C30.3852 22.7066 30.3368 22.6611 30.3147 22.6328L30.3138 22.6397L30.3067 22.6374L30.265 22.6634C30.3005 22.6918 30.3696 22.7408 30.4357 22.7472" fill="#282828"/>
</g>
<defs>
<clipPath id="clip0_10_65">
<rect width="61" height="39" fill="white"/>
</clipPath>
</defs>
</svg>
