<?xml version="1.0" standalone="no"?>
<!DOCTYPE svg PUBLIC "-//W3C//DTD SVG 20010904//EN"
 "http://www.w3.org/TR/2001/REC-SVG-20010904/DTD/svg10.dtd">
<svg version="1.0" xmlns="http://www.w3.org/2000/svg"
 width="70.000000pt" height="70.000000pt" viewBox="0 0 70.000000 70.000000"
 preserveAspectRatio="xMidYMid meet">
<metadata>
Created by potrace 1.14, written by Peter Selinger 2001-2017
</metadata>
<g transform="translate(0.000000,70.000000) scale(0.100000,-0.100000)"
fill="#000000" stroke="none">
<path d="M325 615 c4 -11 11 -34 16 -51 5 -17 20 -40 34 -52 14 -12 25 -28 25
-36 0 -22 -11 -46 -21 -46 -6 0 -5 8 1 19 12 24 4 30 -48 37 -33 4 -42 0 -71
-30 l-33 -34 23 -16 c26 -18 9 -22 -22 -5 -17 8 -19 17 -14 51 4 26 1 51 -8
72 -8 17 -17 38 -20 46 -4 10 -6 9 -6 -6 -1 -11 5 -29 13 -39 9 -13 12 -35 9
-66 -5 -43 -2 -49 32 -83 35 -36 36 -38 21 -61 -9 -14 -13 -25 -8 -25 4 0 5
-35 1 -77 -10 -128 20 -184 68 -128 l23 26 0 -25 c0 -14 3 -27 8 -30 4 -2 6
14 4 36 -5 48 7 64 36 49 26 -14 49 -5 58 21 4 14 12 18 27 14 12 -3 41 -8 64
-12 35 -5 42 -4 45 12 7 33 -11 65 -68 122 -54 55 -69 90 -16 39 16 -15 32
-27 37 -27 19 0 -59 59 -86 65 -37 8 -43 19 -40 75 2 39 -2 49 -28 74 -17 17
-31 39 -31 50 0 12 -8 30 -17 41 l-16 20 8 -20z"/>
<path d="M555 310 c3 -4 14 -10 25 -13 11 -3 18 -2 15 3 -3 4 -14 10 -25 13
-11 3 -18 2 -15 -3z"/>
<path d="M226 258 c-8 -30 -7 -38 2 -38 4 0 8 14 9 30 3 36 -2 39 -11 8z"/>
<path d="M208 193 c-19 -23 -31 -43 -24 -43 2 0 14 14 26 30 23 33 22 40 -2
13z"/>
<path d="M500 156 c0 -2 8 -10 18 -17 15 -13 16 -12 3 4 -13 16 -21 21 -21 13z"/>
</g>
</svg>
