<svg width="82" height="18" viewBox="0 0 82 18" fill="none" xmlns="http://www.w3.org/2000/svg">
<g clip-path="url(#clip0_23_2)">
<path d="M22.652 7.036L22.712 8.32L22.916 8.476L22.292 13H20.12L20.96 7.036H22.652ZM24.956 6.868C25.524 6.868 25.94 7.02 26.204 7.324C26.476 7.62 26.572 8.036 26.492 8.572L25.868 13H23.78L24.308 9.184C24.34 9 24.328 8.876 24.272 8.812C24.216 8.748 24.116 8.716 23.972 8.716C23.86 8.716 23.736 8.74 23.6 8.788C23.472 8.828 23.32 8.904 23.144 9.016C22.976 9.128 22.772 9.28 22.532 9.472L22.196 8.512C22.7 7.936 23.164 7.52 23.588 7.264C24.012 7 24.468 6.868 24.956 6.868ZM28.58 6.868C29.164 6.868 29.588 7.02 29.852 7.324C30.116 7.628 30.212 8.044 30.14 8.572L29.516 13H27.356L27.884 9.184C27.908 8.992 27.888 8.868 27.824 8.812C27.76 8.748 27.668 8.716 27.548 8.716C27.444 8.716 27.328 8.74 27.2 8.788C27.072 8.828 26.924 8.904 26.756 9.016C26.588 9.12 26.392 9.272 26.168 9.472L25.82 8.512C26.324 7.936 26.788 7.52 27.212 7.264C27.636 7 28.092 6.868 28.58 6.868ZM34.4463 6.868C35.2303 6.868 35.8343 6.952 36.2583 7.12C36.6903 7.288 36.9783 7.532 37.1223 7.852C37.2743 8.164 37.3143 8.556 37.2423 9.028C37.1943 9.388 37.0703 9.672 36.8703 9.88C36.6783 10.08 36.4103 10.232 36.0663 10.336C35.7223 10.432 35.2863 10.5 34.7583 10.54L31.6503 10.792L31.7943 9.7L34.2543 9.448C34.4383 9.432 34.5903 9.408 34.7103 9.376C34.8383 9.336 34.9383 9.276 35.0103 9.196C35.0903 9.108 35.1383 8.98 35.1543 8.812C35.1783 8.676 35.1703 8.572 35.1303 8.5C35.0903 8.428 35.0143 8.38 34.9023 8.356C34.7983 8.324 34.6423 8.312 34.4343 8.32C34.2343 8.32 34.0663 8.344 33.9303 8.392C33.7943 8.44 33.6783 8.52 33.5823 8.632C33.4943 8.736 33.4183 8.892 33.3543 9.1C33.2983 9.3 33.2423 9.564 33.1863 9.892C33.1143 10.34 33.0943 10.676 33.1263 10.9C33.1663 11.124 33.2663 11.272 33.4263 11.344C33.5943 11.416 33.8263 11.452 34.1223 11.452C34.3063 11.452 34.5383 11.448 34.8183 11.44C35.0983 11.424 35.3903 11.408 35.6943 11.392C36.0063 11.368 36.2783 11.344 36.5103 11.32L36.6663 12.664C36.4023 12.776 36.1143 12.872 35.8023 12.952C35.4903 13.024 35.1743 13.072 34.8543 13.096C34.5343 13.128 34.2223 13.144 33.9183 13.144C33.0623 13.144 32.4023 13.024 31.9383 12.784C31.4743 12.536 31.1663 12.176 31.0143 11.704C30.8623 11.224 30.8223 10.64 30.8943 9.952C30.9663 9.328 31.0903 8.816 31.2663 8.416C31.4503 8.008 31.6863 7.696 31.9743 7.48C32.2703 7.256 32.6223 7.1 33.0303 7.012C33.4463 6.916 33.9183 6.868 34.4463 6.868ZM41.6838 9.268L41.5038 10.588H37.9758L38.1678 9.268H41.6838ZM44.9293 7.036L44.9893 8.32L45.1933 8.476L44.5693 13H42.3973L43.2373 7.036H44.9293ZM47.2333 6.868C47.8013 6.868 48.2173 7.02 48.4813 7.324C48.7533 7.62 48.8493 8.036 48.7693 8.572L48.1453 13H46.0573L46.5853 9.184C46.6173 9 46.6053 8.876 46.5493 8.812C46.4933 8.748 46.3933 8.716 46.2493 8.716C46.1373 8.716 46.0133 8.74 45.8773 8.788C45.7493 8.828 45.5973 8.904 45.4213 9.016C45.2533 9.128 45.0493 9.28 44.8093 9.472L44.4733 8.512C44.9773 7.936 45.4413 7.52 45.8653 7.264C46.2893 7 46.7453 6.868 47.2333 6.868ZM50.8573 6.868C51.4413 6.868 51.8653 7.02 52.1293 7.324C52.3933 7.628 52.4893 8.044 52.4173 8.572L51.7933 13H49.6333L50.1613 9.184C50.1853 8.992 50.1653 8.868 50.1013 8.812C50.0373 8.748 49.9453 8.716 49.8253 8.716C49.7213 8.716 49.6053 8.74 49.4773 8.788C49.3493 8.828 49.2013 8.904 49.0333 9.016C48.8653 9.12 48.6693 9.272 48.4453 9.472L48.0973 8.512C48.6013 7.936 49.0653 7.52 49.4893 7.264C49.9133 7 50.3693 6.868 50.8573 6.868ZM55.9557 7.036L55.4037 10.852C55.3797 11.036 55.3997 11.164 55.4637 11.236C55.5357 11.3 55.6397 11.332 55.7757 11.332C56.0077 11.332 56.2357 11.272 56.4597 11.152C56.6837 11.024 56.9677 10.82 57.3117 10.54L57.6717 11.512C57.1437 12.08 56.6437 12.5 56.1717 12.772C55.7077 13.036 55.2357 13.168 54.7557 13.168C54.1557 13.168 53.7157 13.02 53.4357 12.724C53.1637 12.42 53.0677 12 53.1477 11.464L53.7597 7.036H55.9557ZM59.8077 7.036L58.9797 13H57.2757L57.2517 11.392L57.0597 11.248L57.6477 7.036H59.8077ZM63.7261 6.868C64.1501 6.868 64.5941 6.904 65.0581 6.976C65.5221 7.04 65.9301 7.148 66.2821 7.3L65.9821 8.632C65.5741 8.624 65.2021 8.62 64.8661 8.62C64.5301 8.62 64.2421 8.62 64.0021 8.62C63.7061 8.62 63.4701 8.664 63.2941 8.752C63.1181 8.832 62.9821 8.972 62.8861 9.172C62.7901 9.364 62.7181 9.64 62.6701 10C62.6141 10.392 62.6061 10.688 62.6461 10.888C62.6861 11.088 62.7821 11.224 62.9341 11.296C63.0861 11.368 63.3061 11.404 63.5941 11.404C63.7461 11.404 63.9261 11.404 64.1341 11.404C64.3501 11.396 64.5781 11.388 64.8181 11.38C65.0661 11.364 65.3101 11.344 65.5501 11.32L65.7061 12.712C65.3301 12.872 64.9221 12.984 64.4821 13.048C64.0421 13.112 63.6181 13.144 63.2101 13.144C62.5061 13.144 61.9261 13.036 61.4701 12.82C61.0141 12.604 60.6941 12.26 60.5101 11.788C60.3341 11.316 60.2981 10.696 60.4021 9.928C60.5061 9.2 60.6781 8.612 60.9181 8.164C61.1581 7.716 61.5021 7.388 61.9501 7.18C62.4061 6.972 62.9981 6.868 63.7261 6.868ZM71.6391 6.868C72.2311 6.868 72.6631 7.016 72.9351 7.312C73.2151 7.608 73.3151 8.028 73.2351 8.572L72.6111 13H70.4391L70.9791 9.184C71.0031 8.992 70.9911 8.868 70.9431 8.812C70.9031 8.748 70.8071 8.716 70.6551 8.716C70.4231 8.716 70.1871 8.776 69.9471 8.896C69.7071 9.008 69.4071 9.208 69.0471 9.496L68.7231 8.512C69.2511 7.944 69.7631 7.528 70.2591 7.264C70.7551 7 71.2151 6.868 71.6391 6.868ZM69.8511 4.6L69.5871 6.556C69.5311 6.964 69.4431 7.356 69.3231 7.732C69.2111 8.108 69.1071 8.408 69.0111 8.632L69.2631 8.752L68.6751 13H66.4911L67.6671 4.6H69.8511ZM80.9553 7.036C80.8913 7.452 80.7993 7.884 80.6793 8.332C80.5593 8.78 80.4233 9.224 80.2713 9.664C80.1193 10.104 79.9593 10.52 79.7913 10.912C79.6313 11.304 79.4753 11.656 79.3233 11.968C79.1793 12.272 79.0513 12.516 78.9393 12.7C78.5553 13.34 78.1353 13.864 77.6793 14.272C77.2233 14.688 76.7313 14.992 76.2033 15.184C75.6753 15.376 75.0913 15.472 74.4513 15.472L74.2833 14.26C74.5713 14.164 74.8433 14.068 75.0993 13.972C75.3633 13.884 75.6113 13.764 75.8433 13.612C76.0753 13.46 76.3033 13.248 76.5273 12.976C76.7513 12.704 76.9753 12.344 77.1993 11.896C77.4393 11.432 77.6433 10.96 77.8113 10.48C77.9873 10 78.1393 9.48 78.2673 8.92C78.4033 8.36 78.5233 7.732 78.6273 7.036H80.9553ZM76.4673 7.036L76.7553 11.452C76.7633 11.58 76.8313 11.644 76.9593 11.644H77.6433L77.1513 13H75.6513C75.4593 13 75.2953 12.94 75.1593 12.82C75.0313 12.7 74.9513 12.556 74.9193 12.388L74.0913 7.036H76.4673Z" fill="#282828" fill-opacity="0.95"/>
<path d="M8.65789 7.7952C8.66108 7.82248 8.66443 7.84977 8.6669 7.87746C8.66575 7.85947 8.66441 7.84142 8.66287 7.82328L8.65789 7.7952ZM7.97797 6.8412C8.00207 6.83525 8.02645 6.82961 8.05052 6.82408C8.10419 6.81167 8.15751 6.79977 8.21025 6.78818L8.2104 6.7876C8.17097 6.79566 8.0939 6.812 7.97797 6.8412V6.8412ZM7.28983 16.2146C7.28983 16.2146 7.21481 16.2166 7.16209 16.1557L7.14129 16.162C7.17099 16.2109 7.15661 16.2385 7.15661 16.2385C7.15896 16.2164 7.14656 16.1829 7.13763 16.1622L7.11256 16.1625C7.12538 16.1844 7.14413 16.2267 7.12227 16.2613C7.13112 16.2335 7.11681 16.1859 7.10839 16.1622C7.08866 16.1588 7.06921 16.149 7.05242 16.1302L7.0348 16.1076C7.0179 16.0831 7.00447 16.0566 6.99349 16.0295L6.98116 15.9969L6.97851 15.9884L6.97195 15.9673L6.96854 15.9555L6.96379 15.9374L6.96118 15.927L6.9563 15.9054L6.95418 15.895L6.95184 15.8829C6.92847 15.8751 6.90506 15.8521 6.8873 15.8036C6.87415 15.7675 6.8646 15.7277 6.85755 15.6901L6.85581 15.68L6.85333 15.6654L6.85051 15.6473L6.84988 15.6426C6.84557 15.6121 6.84288 15.5852 6.84137 15.5657L6.82861 15.5599L6.81906 15.5547L6.81045 15.5488L6.80185 15.5419L6.79466 15.5346L6.78749 15.5259L6.78184 15.517L6.77648 15.5066L6.77269 15.4961L6.77023 15.4896L6.76803 15.4785C6.75756 15.4082 6.7536 15.344 6.75937 15.2867L6.76508 15.2485L6.76894 15.2335L6.77458 15.2118L6.78491 15.186L6.78837 15.1779L6.77577 15.1639L6.77006 15.1562L6.76123 15.1403L6.75784 15.1332L6.75121 15.1095L6.7497 15.0976L6.74828 15.0819L6.74822 15.068L6.7491 15.0511L6.75019 15.038C6.75318 15.0147 6.75798 14.9919 6.76439 14.9679C6.78602 14.8874 6.79671 14.7364 6.80018 14.6734C6.78622 14.6496 6.7804 14.6169 6.7921 14.5779C6.81357 14.5075 6.81562 14.3191 6.80936 14.1727L6.80835 14.1525C6.79437 14.1737 6.7798 14.1957 6.76532 14.2174L6.74882 14.2424C6.7259 14.2768 6.70225 14.3115 6.67777 14.3469C6.30161 14.8924 5.83341 15.6337 5.47995 15.7499C5.45371 15.7586 5.42802 15.7638 5.40314 15.7652C5.38768 15.7662 5.37202 15.7661 5.35626 15.7653L5.34182 15.7643L5.30703 15.7605L5.29183 15.758L5.2467 15.748C5.22685 15.7427 5.21046 15.7372 5.19418 15.7312L5.17791 15.7248L5.14307 15.7099L5.1261 15.702L5.0828 15.6792L5.07574 15.6754C5.05931 15.6659 5.04291 15.6555 5.02639 15.6445L5.00987 15.6331L4.97473 15.6078L4.95771 15.5949C4.9433 15.5835 4.92893 15.5717 4.9147 15.5594L4.9076 15.5536C4.89114 15.5392 4.8746 15.5239 4.85832 15.5082L4.84387 15.4938C4.83157 15.4817 4.81925 15.4691 4.80706 15.4562L4.79271 15.4409C4.77725 15.424 4.76195 15.4066 4.74675 15.3887C4.72767 15.3661 4.71119 15.3454 4.69487 15.3243L4.68592 15.3124C4.67226 15.2944 4.65885 15.276 4.64539 15.257L4.63671 15.2446C4.60419 15.1977 4.57261 15.148 4.5422 15.0957C4.41395 14.8749 4.3063 14.6076 4.23756 14.3038C4.03342 13.3991 4.32437 12.7194 4.32426 12.5815C4.34122 12.1586 4.41067 11.8835 4.41067 11.8835L4.40457 11.8785L4.40781 11.8742C4.35871 11.7253 4.34033 11.2943 4.3646 10.8641L4.3573 10.8471L4.36579 10.8446L4.36811 10.8053C4.39835 10.3479 4.45098 9.69201 4.5835 9.47914C4.54585 9.49963 4.51222 9.52078 4.48111 9.54169C4.45912 9.60206 4.43349 9.66773 4.43349 9.66773C4.43435 9.63361 4.45525 9.58362 4.47238 9.54774C4.45111 9.56257 4.43117 9.57716 4.41268 9.59153C4.40917 9.62783 4.39819 9.65472 4.39819 9.65472C4.39817 9.63199 4.40344 9.60981 4.40806 9.5951L4.37762 9.6197L4.34382 9.72608C4.34263 9.68913 4.35208 9.65697 4.36253 9.6325L4.33393 9.65783L4.29304 9.7465C4.29729 9.71916 4.30498 9.6962 4.31345 9.67685C4.29016 9.69889 4.26975 9.7192 4.25202 9.73711C4.24215 9.76072 4.23298 9.78377 4.22795 9.79882C4.23028 9.78128 4.23357 9.76593 4.23716 9.75181C4.22444 9.76449 4.21318 9.77536 4.20282 9.78433L4.20397 9.81899L4.19658 9.78963L4.18415 9.79897L4.19327 9.83059L4.1778 9.80311L4.16755 9.80822C4.16693 9.80856 4.16621 9.80879 4.16556 9.80901C4.15193 9.81349 4.13593 9.8094 4.11968 9.79961C4.09702 9.85091 3.86332 10.4002 3.87424 11.2889C3.88795 11.5504 3.89378 11.6205 3.81727 11.663C3.79168 11.7361 3.69872 11.9602 3.41863 12.3297C3.14761 12.6866 3.0021 12.9539 2.88172 12.9935C2.86515 12.9989 2.84905 13.0001 2.83309 12.9966C2.80823 13.0589 2.73798 13.245 2.7424 13.3414L2.74135 13.3529L2.73568 13.3624L2.72617 13.3703L2.71342 13.3761L2.70891 13.3775L2.69859 13.3795C2.71159 13.4258 2.74928 13.548 2.81791 13.6829C2.84065 13.7294 2.82819 13.7605 2.80227 13.7798C2.82911 13.8343 2.89652 13.9603 2.96974 14.0138L2.98058 14.0276L2.98429 14.0439L2.98322 14.0526C3.05291 14.0953 3.16082 14.2376 3.18556 14.3011C3.19731 14.3316 3.1712 14.3592 3.13612 14.3782C3.16052 14.4026 3.20185 14.4404 3.23219 14.4495C3.17501 14.4357 3.14434 14.4042 3.12903 14.3819L3.09023 14.3968C3.11418 14.4207 3.15703 14.4579 3.20129 14.4678C3.20129 14.4678 3.1298 14.4611 3.08467 14.3983L3.06274 14.4025C3.08301 14.4513 3.06611 14.4754 3.06611 14.4754C3.0707 14.4554 3.06422 14.4246 3.05837 14.4029L3.03524 14.4029C3.04432 14.4274 3.05223 14.4656 3.02931 14.4938C3.04019 14.4699 3.03453 14.4278 3.02942 14.4017L3.01681 14.3935L3.01359 14.3856C2.99521 14.3368 2.96612 14.2726 2.93961 14.2167C2.91838 14.1722 2.89889 14.1328 2.88801 14.111L2.87448 14.1104C2.84023 14.1066 2.80525 14.089 2.77602 14.0489C2.70085 13.9456 2.67997 13.8407 2.67439 13.7981L2.66569 13.7947L2.65843 13.7863L2.65565 13.7814C2.62484 13.728 2.57545 13.5301 2.57643 13.3949L2.57648 13.3876L2.57801 13.3601L2.57893 13.3505L2.58171 13.3333L2.57631 13.3244C2.57045 13.3129 2.56678 13.2997 2.56628 13.2844C2.5659 13.2667 2.569 13.2459 2.57795 13.2218C2.62157 13.1032 2.66577 13.0005 2.7081 12.937L2.72266 12.9161L2.7294 12.9081L2.74443 12.8923C2.73737 12.8516 2.75723 12.818 2.7964 12.7772C2.84752 12.7238 3.34255 12.19 3.57725 11.844L3.58514 11.8324L3.59785 11.8128L3.59795 11.8056L3.6026 11.8056L3.61881 11.78L3.63627 11.7512L3.65406 11.7199L3.66124 11.7063L3.66332 11.7019L3.65773 11.6995L3.64906 11.6956L3.63252 11.6837L3.62591 11.6774L3.6098 11.6543C3.60205 11.6401 3.59742 11.628 3.59339 11.6148L3.59043 11.6033L3.58309 11.5709L3.5804 11.5538L3.5762 11.519L3.57446 11.5002C3.57339 11.4858 3.57265 11.4706 3.57211 11.455L3.5716 11.445C3.56902 11.3336 3.57899 11.1948 3.59285 11.0456C3.62157 10.7403 3.72113 10.2962 3.88638 9.91001C3.89641 9.88243 3.90873 9.85516 3.92199 9.82937L3.93474 9.80276L3.95339 9.76419L3.97716 9.71749L3.99382 9.68588C4.00581 9.66324 4.01822 9.64151 4.03075 9.61989C4.03226 9.60307 4.03625 9.58629 4.04415 9.57064C4.06411 9.54152 4.08363 9.51387 4.10275 9.48722L4.12178 9.46072L4.15223 9.41841C4.28291 9.24184 4.3895 9.12167 4.46591 9.04426C4.55169 8.95675 4.5993 8.92345 4.5993 8.92345C4.59661 8.94337 4.5942 8.96299 4.59207 8.9824C4.62529 8.74921 4.69643 8.55288 4.77635 8.40063L4.77337 8.39312C4.75097 8.20078 4.89492 8.00094 4.92771 7.95825L4.92146 7.95321C4.49366 8.09004 3.51566 7.03608 3.30577 6.68998C3.2925 6.66802 3.27994 6.64703 3.26797 6.62685L3.25957 6.61247C3.25097 6.59781 3.24229 6.58317 3.23444 6.56962L3.22348 6.55031L3.20498 6.51751L3.19294 6.49566L3.17931 6.4706L3.16748 6.44801L3.15725 6.42845L3.14592 6.40552L3.13871 6.39091L3.12877 6.36939L3.12337 6.35741L3.1152 6.33786L3.11095 6.32754L3.1047 6.31041L3.10166 6.30173L3.09701 6.28662L3.0949 6.27916L3.08868 6.27L3.0842 6.26265L3.07279 6.24314L3.06795 6.23268L3.05737 6.20797L3.05281 6.19453L3.0435 6.1638L3.04115 6.15608C3.02772 6.10023 3.01804 6.02717 3.01852 5.9287C3.01516 5.75848 3.0232 5.55802 3.03758 5.357C3.00251 5.27227 3.01136 5.18734 3.01136 5.18734C3.02172 5.25321 3.03211 5.30719 3.03879 5.34065C3.04292 5.28529 3.04748 5.22996 3.05225 5.17508C3.04369 5.11914 3.02359 5.05784 3.02359 5.05784C3.02359 5.05784 3.047 5.07883 3.0564 5.13007C3.05956 5.0966 3.06278 5.06345 3.06618 5.03092C3.05676 4.97884 3.0259 4.9316 3.0259 4.9316C3.0259 4.9316 3.05868 4.95392 3.0687 5.00564C3.07169 4.97732 3.07478 4.94948 3.07779 4.922C3.06702 4.87494 3.03869 4.82076 3.03869 4.82076C3.03869 4.82076 3.07041 4.84496 3.0805 4.89852C3.0828 4.87858 3.08505 4.85916 3.08736 4.83989C3.07176 4.77507 3.03203 4.67573 3.03203 4.67573C3.03203 4.67573 3.07592 4.73651 3.08947 4.82341L3.09292 4.79409C3.0511 4.71853 3.05022 4.64767 3.05022 4.64767C3.05022 4.64767 3.07654 4.73274 3.09418 4.78433C3.10189 4.72322 3.10968 4.66581 3.11756 4.6133C3.0702 4.48896 3.10397 4.42012 3.10397 4.42012C3.10397 4.42012 3.1015 4.53436 3.11821 4.60901C3.12465 4.56631 3.13095 4.52637 3.13703 4.49126C3.10814 4.4269 3.1207 4.37913 3.1207 4.37913C3.1207 4.37913 3.12669 4.4388 3.13845 4.48366C3.14559 4.44345 3.15344 4.40605 3.16174 4.37123C3.1249 4.26127 3.15085 4.22183 3.15085 4.22183C3.15085 4.22183 3.15546 4.30962 3.16323 4.36463C3.17107 4.33284 3.17917 4.30284 3.18777 4.27539C3.16441 4.21754 3.18258 4.20052 3.18258 4.20052C3.18258 4.20052 3.18348 4.23911 3.18948 4.27008C3.21129 4.20025 3.23493 4.14408 3.25829 4.10141C3.2522 4.09 3.24467 4.06446 3.26533 4.02727C3.17948 3.9662 2.86438 3.7228 2.70026 3.33821C2.67234 3.25842 2.67796 3.2114 2.70914 3.1862C2.66932 3.13376 2.56701 2.99185 2.5224 2.85626C2.51291 2.82474 2.52109 2.79845 2.53936 2.77716C2.50832 2.7641 2.44609 2.71615 2.40891 2.53617C2.39271 2.45779 2.40476 2.40764 2.46474 2.38791C2.46786 2.38688 2.47115 2.38597 2.47457 2.38502C2.45532 2.36011 2.42361 2.31162 2.40127 2.23848C2.3753 2.1533 2.39847 2.11426 2.4477 2.09807C2.44824 2.09789 2.44878 2.09771 2.44926 2.09755C2.43034 2.02788 2.3855 1.8455 2.42799 1.82031L2.44874 1.81365L2.45601 1.81347L2.47113 1.81393C2.43434 1.75268 2.3904 1.6909 2.3904 1.6909C2.3904 1.6909 2.44694 1.75821 2.47376 1.81425L2.48221 1.81606L2.49963 1.8217C2.47619 1.76965 2.42528 1.70608 2.42528 1.70608C2.42528 1.70608 2.47513 1.73994 2.50519 1.82344L2.52851 1.83682L2.53559 1.84128L2.54003 1.84492C2.52746 1.79845 2.50316 1.71628 2.50316 1.71628C2.5108 1.72294 2.53956 1.78241 2.54232 1.84671L2.55999 1.86263C2.57411 1.82063 2.58333 1.73423 2.58333 1.73423C2.58333 1.73423 2.59194 1.80339 2.56198 1.86452L2.56615 1.86994L2.57179 1.87675L2.57881 1.88514L2.58155 1.88984L2.58814 1.90108L2.59484 1.91263C2.60257 1.93148 2.60898 1.94992 2.61149 1.97049C2.61856 2.03184 2.61505 2.07918 2.61032 2.11062L2.61861 2.11587L2.62748 2.12161L2.64954 2.1405L2.65498 2.1472L2.6655 2.16004C2.68125 2.18356 2.69511 2.21534 2.70048 2.25755C2.70418 2.28485 2.70591 2.30772 2.70673 2.32833L2.70705 2.33604L2.70754 2.35201L2.70715 2.36844L2.70683 2.38094L2.70502 2.39681L2.70253 2.41172L2.70041 2.42125L2.69787 2.42888L2.69565 2.4347L2.69975 2.44049C2.72152 2.47509 2.72543 2.52016 2.73774 2.56162C2.7471 2.59352 2.75361 2.63128 2.75807 2.6653L2.76052 2.68487L2.7641 2.72003L2.77282 2.72446L2.78167 2.72953L2.78889 2.7353L2.7967 2.74207L2.80317 2.74894L2.8084 2.75453C2.85451 2.81067 2.88823 2.92506 2.9055 3.07236L2.90705 3.08578L2.91086 3.12527L2.91247 3.14427L2.91487 3.18152C2.93296 3.19509 2.94579 3.21702 2.96558 3.25415C2.97064 3.26369 2.97712 3.27565 2.98454 3.28951L2.99809 3.31392C3.05748 3.4219 3.16501 3.60793 3.26298 3.74262L3.28411 3.77268L3.29026 3.78152L3.31296 3.81481L3.32444 3.8326L3.34144 3.85994L3.35093 3.87584L3.36341 3.89771L3.37076 3.91125L3.37957 3.92822L3.38474 3.93925L3.39066 3.95157L3.3942 3.96025L3.39733 3.96822L3.39971 3.9744C3.40465 3.98993 3.40931 3.99892 3.41345 4.00944C3.42501 4.0306 3.4345 4.06772 3.44913 4.1293C3.50041 4.34522 3.47082 4.82326 3.40365 5.27681C3.33636 5.73023 3.30363 6.06277 3.31805 6.16466C3.32542 6.21878 3.30912 6.25419 3.29219 6.27555C3.47313 6.47055 3.65833 6.62391 3.82819 6.74241C3.80258 6.71246 3.80689 6.69423 3.80689 6.69423C3.80689 6.69423 3.82948 6.72993 3.85768 6.7631C3.89812 6.79055 3.93739 6.81583 3.97563 6.83942C3.89334 6.76529 3.86874 6.70666 3.86874 6.70666C3.86874 6.70666 3.93671 6.79092 3.9844 6.84485C4.00361 6.85653 4.02254 6.86796 4.04111 6.87866C3.98027 6.82804 3.98984 6.78414 3.98984 6.78414C3.98984 6.78414 4.01531 6.84742 4.05903 6.88907C4.08421 6.90354 4.10869 6.91705 4.13234 6.92964C4.07952 6.88623 4.08398 6.86235 4.08398 6.86235C4.08398 6.86235 4.12099 6.90774 4.16171 6.94494C4.19603 6.96268 4.22883 6.97872 4.25884 6.99228C4.20978 6.95137 4.19149 6.90611 4.19149 6.90611C4.19149 6.90611 4.24031 6.96493 4.28518 7.00399C4.32918 7.0233 4.36788 7.03842 4.39949 7.04907C4.33062 7.01213 4.31359 6.96969 4.31359 6.96969C4.31359 6.96969 4.37484 7.02747 4.42411 7.05762C4.54254 7.09812 4.63503 7.13901 4.68657 7.16365L4.69667 7.1172L4.69991 7.10374C4.70548 7.08289 4.71151 7.06239 4.71836 7.04282L4.72298 7.02993L4.74157 6.98289L4.74773 6.96847C4.75605 6.95028 4.76453 6.93255 4.77356 6.91548L4.77821 6.90733L4.80302 6.8647L4.81153 6.8512L4.8411 6.80751C4.85341 6.79056 4.86432 6.77661 4.87549 6.76292L4.88501 6.75147L4.91335 6.71905L4.9171 6.71493L4.92019 6.71137L4.92662 6.70501L4.94718 6.68364L4.95325 6.67774L4.96049 6.67077L4.97396 6.65785L4.98038 6.652L4.99338 6.64025L5.00063 6.63379L5.00689 6.62851L5.02246 6.61524L4.99665 6.61965C4.91372 6.68497 4.81349 6.73238 4.76633 6.75265C4.82529 6.72527 4.91504 6.6662 4.97797 6.62291C4.92877 6.63078 4.88204 6.6363 4.83844 6.63944C4.80561 6.65924 4.77323 6.6794 4.74757 6.69769C4.76841 6.68133 4.79573 6.6613 4.82836 6.63987C4.80964 6.64094 4.79137 6.64185 4.77377 6.64221C4.72361 6.66941 4.68076 6.68673 4.64741 6.6977C4.59822 6.71389 4.56987 6.71625 4.56987 6.71625C4.61783 6.70047 4.6773 6.67259 4.73515 6.64235C4.68425 6.64194 4.63798 6.63798 4.59571 6.63168C4.57377 6.64009 4.55358 6.64707 4.53545 6.65303C4.47427 6.67316 4.43766 6.68045 4.43766 6.68045C4.47763 6.66679 4.52365 6.64826 4.57143 6.62778L4.52707 6.61877C4.52389 6.61999 4.52067 6.62105 4.51759 6.62206C4.32484 6.68548 4.2126 6.67826 4.2126 6.67826C4.30437 6.66776 4.40527 6.64153 4.49851 6.6117C4.47404 6.60515 4.45152 6.59778 4.43069 6.58987C4.02297 6.68783 3.91967 6.50431 3.91967 6.50431C4.05279 6.61486 4.24647 6.61448 4.41425 6.58339C4.33997 6.55281 4.29012 6.51675 4.25981 6.48936C4.10979 6.47606 4.01757 6.4103 3.98238 6.30335L3.97307 6.26634L3.97055 6.25121L3.96748 6.22624L3.96599 6.20619L3.96559 6.18323L3.9658 6.16006C3.97544 5.93565 4.11423 5.61865 4.38966 5.3618C4.43555 5.31903 4.47993 5.28202 4.5227 5.24944L4.5437 5.23404C4.5629 5.21991 4.58178 5.20691 4.6001 5.19477L4.62597 5.17811L4.65254 5.16257L4.67788 5.14795L4.70306 5.13492L4.72757 5.12295L4.75131 5.11225L4.77519 5.10253L4.79733 5.09422L4.821 5.08644L4.83411 5.08229L4.84336 5.0638L4.86969 5.01439L4.87588 5.00318C4.88775 4.98229 4.90075 4.9607 4.91446 4.93921L4.92235 4.92694C4.93533 4.90687 4.94904 4.88691 4.96351 4.8667L4.96727 4.86105C5.00512 4.80886 5.04794 4.75623 5.09591 4.70581L5.06367 4.68755L5.09591 4.70581L5.11622 4.68521C5.08813 4.64385 5.01878 4.52624 5.0939 4.46825L5.09893 4.46489C4.89286 4.35423 4.81848 4.35544 4.79373 4.36358C4.78512 4.36641 4.78244 4.37018 4.78244 4.37018C4.78244 4.37018 4.78684 4.36075 4.80359 4.35524C4.83587 4.34462 4.91504 4.34863 5.09965 4.46449L5.10575 4.46078C4.98267 4.2622 4.93393 4.27246 4.92947 4.27393C4.92931 4.27398 4.92916 4.27403 4.92916 4.27403C4.92916 4.27403 4.93029 4.27332 4.93244 4.27261C4.94597 4.26816 5.00286 4.26506 5.10662 4.46032L5.11442 4.45606L5.11862 4.45434L5.13676 4.44837L5.16118 4.44492C5.2393 4.44265 5.32141 4.49341 5.33992 4.50566C5.39465 4.47475 5.45085 4.44675 5.51101 4.42509C5.51449 4.42377 5.51818 4.42256 5.52187 4.42135C5.54923 4.41234 5.57781 4.40549 5.60694 4.39981L5.64872 4.39218L5.65814 4.39078L5.67749 4.38747C5.68684 4.35892 5.71778 4.27641 5.77338 4.23366L5.79278 4.22117L5.81436 4.2122L5.83366 4.20823C5.80501 4.00049 5.85114 3.97037 5.86451 3.96597C5.86667 3.96526 5.86784 3.96521 5.86784 3.96521C5.86784 3.96521 5.86769 3.96526 5.86753 3.96531C5.86323 3.96673 5.8194 3.98675 5.8353 4.20803L5.84221 4.20728L5.8485 4.20776C5.92622 4.01477 5.98564 3.96653 6.01715 3.95616C6.03375 3.9507 6.04268 3.95557 6.04268 3.95557C6.04268 3.95557 6.03849 3.95423 6.02989 3.95707C6.00575 3.96501 5.94703 4.00657 5.84993 4.20797C5.94065 4.21293 5.95959 4.34815 5.96331 4.3926L5.99239 4.39661L5.99749 4.37999L5.9927 4.39651C6.06207 4.40595 6.12841 4.4186 6.18778 4.43234L6.22595 4.44169C6.2451 4.44659 6.26314 4.45119 6.2802 4.45593L6.29159 4.45898L6.32663 4.46918L6.33644 4.47207L6.36601 4.48119L6.37434 4.48371L6.39819 4.49149L6.40493 4.49385L6.42163 4.49957L6.42796 4.50173L6.43664 4.50481L6.44149 4.50661L6.44941 4.50944L6.45741 4.5063L6.4796 4.49765L6.50276 4.48986L6.52653 4.48238L6.55214 4.47531L6.57826 4.46926L6.60642 4.46322L6.63499 4.45841L6.66545 4.45365L6.69682 4.45012C6.71755 4.44789 6.73914 4.44622 6.76135 4.44485L6.79113 4.44321C6.84429 4.44117 6.90209 4.44185 6.96432 4.44566C7.34028 4.46952 7.64894 4.62641 7.79735 4.79221L7.81459 4.81251L7.82745 4.82883L7.84026 4.84703L7.85259 4.8664L7.86111 4.88092L7.87716 4.9152C7.92101 5.02829 7.8835 5.14676 7.75379 5.2599C7.74841 5.29223 7.74072 5.32685 7.72848 5.36314C7.91498 5.24813 7.99415 5.13617 8.02788 5.06784C7.9738 5.20738 7.84888 5.31334 7.71977 5.38638L7.69685 5.43943C7.86561 5.36421 7.93098 5.31333 7.94911 5.29701C7.88439 5.36279 7.78591 5.41811 7.68523 5.4621C7.67522 5.48033 7.66372 5.49872 7.6511 5.51731C7.65479 5.51609 7.65848 5.51488 7.66216 5.51367C7.70751 5.49875 7.74861 5.48336 7.77902 5.46809C7.77902 5.46809 7.72813 5.49723 7.64203 5.53014C7.61587 5.56659 7.58413 5.60318 7.54472 5.63924C7.58835 5.62896 7.62943 5.61816 7.66217 5.60739C7.6803 5.60142 7.69588 5.59545 7.70793 5.58962C7.70793 5.58962 7.66249 5.61408 7.58441 5.63976C7.5655 5.64598 7.54476 5.6523 7.52237 5.65831C7.50301 5.67504 7.4816 5.69125 7.45896 5.70736C7.52862 5.69853 7.59384 5.68862 7.61889 5.68038C7.61889 5.68038 7.61156 5.68347 7.59773 5.68802C7.56883 5.69753 7.51182 5.71374 7.43504 5.72422C7.40774 5.74221 7.37906 5.76013 7.34695 5.77749C7.42255 5.76807 7.51142 5.75394 7.56983 5.73473C7.57967 5.73149 7.58843 5.7281 7.59632 5.72465C7.59632 5.72465 7.58283 5.73333 7.54886 5.74451C7.5089 5.75766 7.44058 5.77419 7.33336 5.78433C7.31577 5.79352 7.29736 5.8028 7.27819 5.81183L7.29947 5.81128L7.33727 5.81123L7.37635 5.81196L7.41225 5.81441L7.42181 5.815C7.45851 5.80955 7.4942 5.80358 7.52574 5.79694C7.52574 5.79694 7.52497 5.7972 7.52343 5.7977C7.51606 5.80013 7.49044 5.80822 7.44957 5.81759L7.48326 5.82212L7.51807 5.82748L7.55011 5.83426L7.58322 5.84171L7.61316 5.85037L7.64462 5.86005L7.67234 5.87029L7.70242 5.88196L7.72768 5.89351L7.75641 5.90732L7.77988 5.92015L7.80712 5.93563L7.82833 5.94937L7.85434 5.9668L7.87335 5.98109L7.89832 6.00055L7.90489 6.00603L7.90877 5.99762L7.92723 5.95742L7.9311 5.94952L7.94701 5.91661L7.95642 5.89806L7.97025 5.87127L7.98404 5.84483C8.00154 5.81258 8.01883 5.78177 8.03786 5.74952C8.05588 5.69453 8.06467 5.61098 8.06467 5.61098C8.06467 5.61098 8.07955 5.65414 8.05127 5.72661C8.06844 5.69803 8.08806 5.66135 8.10899 5.6183C8.11741 5.5595 8.1164 5.48342 8.1164 5.48342C8.1164 5.48342 8.13193 5.52959 8.12139 5.59232C8.1354 5.56241 8.14983 5.52913 8.16443 5.49326C8.17125 5.43889 8.16969 5.38031 8.16969 5.38031C8.16969 5.38031 8.18865 5.39547 8.17676 5.46289C8.18649 5.43812 8.19629 5.41197 8.20599 5.38501C8.21237 5.32467 8.19048 5.25971 8.19048 5.25971C8.19048 5.25971 8.22657 5.28706 8.21289 5.36508C8.22004 5.3449 8.2271 5.3239 8.23416 5.30239C8.23523 5.23055 8.23274 5.12202 8.23274 5.12202C8.23274 5.12202 8.25194 5.18244 8.23723 5.29255C8.25099 5.24999 8.26446 5.20549 8.27738 5.15828C8.27718 5.1147 8.2712 5.0727 8.2712 5.0727C8.2712 5.0727 8.28644 5.08381 8.2865 5.12336C8.33858 4.92284 8.37994 4.68612 8.39074 4.42124C8.36392 4.41479 8.32855 4.39841 8.29921 4.3522C8.24387 4.26581 8.0029 4.03402 7.65714 3.73278C7.31179 3.43176 6.97852 3.08719 6.87702 2.88949C6.8494 2.83558 6.83289 2.80196 6.82738 2.77847L6.8193 2.74564L6.81291 2.73603L6.80781 2.72107L6.8062 2.71565L6.80112 2.69814L6.79942 2.69088L6.79366 2.66612L6.79185 2.65806L6.78552 2.6238L6.78453 2.61819C6.77832 2.58067 6.77215 2.53345 6.76758 2.47502C6.75447 2.30885 6.7153 2.09761 6.69062 1.97651L6.68722 1.96048C6.68297 1.94032 6.67932 1.92301 6.67637 1.90989C6.66731 1.86889 6.66287 1.84403 6.66779 1.82221L6.64456 1.79096L6.63669 1.77997C6.53441 1.63788 6.47304 1.51035 6.47165 1.42794L6.47162 1.42269L6.47219 1.41044L6.47346 1.40239L6.4755 1.39204L6.47867 1.38301L6.48152 1.37562L6.47854 1.3676L6.46737 1.35125L6.45172 1.32804C6.43319 1.29915 6.41351 1.26624 6.4 1.23604C6.38239 1.1965 6.35617 1.15979 6.35018 1.1188L6.34934 1.11212L6.34174 1.10765L6.32395 1.095L6.30547 1.07765L6.2988 1.07033L6.28634 1.05626L6.27698 1.04491L6.27149 1.03806C6.25924 1.02205 6.24583 1.00354 6.23075 0.980485C6.2076 0.944803 6.19732 0.912017 6.19466 0.881651L6.19379 0.86971L6.19386 0.854914L6.19767 0.830741L6.20157 0.817741L6.20401 0.810147L6.19087 0.798168L6.17758 0.785222L6.17259 0.780411C6.15402 0.760713 6.13306 0.735854 6.11173 0.704157C6.1001 0.686928 6.09308 0.668693 6.08806 0.65031L6.08459 0.636677L6.0822 0.623201L6.08125 0.618248L6.07675 0.608694L6.08109 0.599625L6.08057 0.591818C6.01819 0.564796 5.97975 0.506467 5.97975 0.506467C5.97975 0.506467 6.04304 0.566297 6.08052 0.590643L6.08412 0.565348C6.04437 0.514413 6.02734 0.450738 6.02908 0.440487C6.02908 0.440487 6.06389 0.518858 6.08455 0.562491L6.08554 0.557239L6.0884 0.547808L6.09546 0.52783L6.09727 0.523496C6.06601 0.440392 6.08169 0.382427 6.08169 0.382427C6.08169 0.382427 6.08436 0.463559 6.09856 0.521204L6.10969 0.503278L6.115 0.496099C6.09918 0.436102 6.09817 0.348138 6.09817 0.348138C6.09817 0.348138 6.10497 0.42367 6.11675 0.494166L6.12764 0.4843L6.1337 0.479419L6.15364 0.471162C6.20227 0.462632 6.28688 0.630233 6.31777 0.695632C6.3211 0.694367 6.32443 0.693101 6.32766 0.692039C6.37223 0.677374 6.41225 0.694942 6.44584 0.771676C6.4764 0.841768 6.48369 0.899138 6.48517 0.930572C6.49122 0.927732 6.49707 0.925301 6.50291 0.923379C6.55701 0.905579 6.59671 0.936156 6.63342 1.00321C6.72215 1.16419 6.70587 1.24103 6.69048 1.27088C6.71833 1.2753 6.74179 1.29017 6.755 1.32046C6.80924 1.45221 6.82369 1.62659 6.82736 1.69212C6.86741 1.69116 6.90214 1.7232 6.93286 1.80207C7.05803 2.20118 6.97628 2.5911 6.95087 2.69302C6.99049 2.70783 7.00137 2.7321 7.00418 2.74476C7.04967 2.76188 7.10417 2.78929 7.16603 2.8282C7.15056 2.80085 7.12636 2.77078 7.12636 2.77078C7.12636 2.77078 7.15106 2.77182 7.17108 2.83112C7.19525 2.8466 7.22069 2.86387 7.2472 2.88282C7.21745 2.8359 7.16408 2.76635 7.16408 2.76635C7.16408 2.76635 7.20923 2.77934 7.25255 2.88667C7.2817 2.90798 7.31208 2.93144 7.34382 2.9575C7.32356 2.9156 7.28938 2.86657 7.28938 2.86657C7.28938 2.86657 7.3299 2.89501 7.34963 2.96221C7.37719 2.9849 7.4076 3.01106 7.44005 3.03927C7.40416 2.97161 7.32856 2.88679 7.32856 2.88679C7.32856 2.88679 7.3989 2.91731 7.44361 3.04234C7.4837 3.0772 7.52705 3.11575 7.57283 3.15757C7.55277 3.10695 7.51736 3.02521 7.51736 3.02521C7.51736 3.02521 7.56267 3.07958 7.57991 3.16407L7.6016 3.18393C7.55562 3.10941 7.54944 3.03469 7.54944 3.03469C7.54944 3.03469 7.58383 3.13612 7.61403 3.19529C7.62823 3.20845 7.64244 3.2216 7.65711 3.23512C7.63007 3.18815 7.6384 3.14924 7.6384 3.14924C7.6384 3.14924 7.65222 3.20888 7.67462 3.2516C7.69474 3.27028 7.71506 3.28958 7.73563 3.30913C7.71002 3.26339 7.72043 3.22515 7.72043 3.22515C7.72043 3.22515 7.72748 3.28073 7.75396 3.32653C7.77774 3.3491 7.80172 3.37228 7.82585 3.39593C7.79972 3.35069 7.80402 3.31974 7.80402 3.31974C7.80402 3.31974 7.82859 3.3794 7.85838 3.4275C7.89778 3.46599 7.93729 3.50529 7.97638 3.54489C7.95975 3.51505 7.93246 3.46731 7.89734 3.41027C7.89734 3.41027 7.9592 3.46887 7.98773 3.5561C8.12924 3.69989 8.26556 3.84708 8.37362 3.97878C8.43776 4.05311 8.47787 4.11496 8.50355 4.16611L8.50857 4.17618L8.51859 4.19886L8.52616 4.21827L8.53241 4.23829L8.53678 4.25366L8.54032 4.27372L8.54196 4.28388L8.54237 4.29291L8.54794 4.30518L8.55244 4.31524L8.55714 4.32745L8.56234 4.3417L8.56612 4.35319L8.57242 4.37285L8.57524 4.38245L8.58263 4.40906L8.58433 4.4158L8.59322 4.45057C8.61097 4.5247 8.62923 4.61956 8.64954 4.74396C8.71495 5.14574 8.65494 6.59639 8.23413 6.75619L8.23243 6.77173C8.24637 6.77424 8.53171 6.82761 8.64701 7.00617L8.65174 7.01278C8.79642 7.06992 8.95844 7.15802 9.11798 7.28674L9.12888 7.28673L9.14525 7.28678L9.15536 7.28697L9.17415 7.28762L9.18846 7.28816L9.20877 7.2893L9.22861 7.2906L9.24921 7.29211L9.26338 7.29322C9.38563 7.30394 9.57277 7.33065 9.83211 7.39564C9.8624 7.40331 9.89362 7.41121 9.9259 7.41976C9.94215 7.42669 9.95601 7.43672 9.96813 7.44871C9.99161 7.45691 10.0154 7.4656 10.0391 7.4748L10.0715 7.48788L10.1213 7.50848L10.1584 7.52469L10.1865 7.53731C10.2136 7.54823 10.2409 7.56121 10.2666 7.57563C10.643 7.762 11.0072 8.03531 11.2271 8.24869C11.3348 8.35323 11.4323 8.45199 11.5026 8.53878L11.5096 8.54751L11.5366 8.58257L11.5473 8.59779L11.5668 8.62729L11.5759 8.64201L11.5911 8.67098L11.5966 8.68204L11.6091 8.71798L11.61 8.72485L11.6126 8.75033L11.6112 8.7606L11.6068 8.77889L11.6022 8.78858L11.5999 8.79352L11.6194 8.80144L11.6528 8.81364L11.6796 8.82254L11.7134 8.83298L11.717 8.82988L11.7221 8.83568L11.7387 8.84045L11.7806 8.85192C12.1258 8.94332 12.6798 9.01594 12.8844 9.04031L12.9047 9.04263C12.9305 9.04571 12.949 9.04757 12.9576 9.04845C13.014 9.05436 13.0509 9.06685 13.0719 9.10225L13.0933 9.1047L13.107 9.10714L13.1287 9.11253C13.2021 9.13356 13.3023 9.18297 13.4127 9.24461C13.4349 9.25721 13.4508 9.27093 13.462 9.28512L13.4779 9.31448L13.4803 9.32102L13.482 9.33204L13.4948 9.3429L13.5033 9.35117L13.5212 9.3699L13.5264 9.37535C13.6253 9.48965 13.7276 9.70508 13.7181 9.73745L13.7134 9.74595L13.7196 9.7558L13.7231 9.76129L13.7268 9.768L13.7309 9.77516L13.7347 9.78226L13.7398 9.79193L13.743 9.79851L13.7491 9.8113C13.7718 9.86173 13.7932 9.92584 13.7992 10.0025C13.8031 10.0521 13.7878 10.0881 13.7651 10.1123L13.7544 10.1223C13.7591 10.1406 13.7664 10.1706 13.7757 10.2056L13.7784 10.2159L13.7808 10.2248C13.7974 10.2871 13.8183 10.3604 13.8371 10.4128L13.8398 10.4207L13.8357 10.4351C13.8487 10.4584 13.8718 10.4941 13.8959 10.505C13.8598 10.4985 13.8411 10.4644 13.832 10.4399L13.8146 10.4552C13.8241 10.4753 13.8391 10.503 13.8556 10.5152C13.8556 10.5152 13.8273 10.5077 13.8109 10.4576L13.7915 10.4685C13.7981 10.5455 13.7479 10.597 13.7479 10.597C13.7752 10.5607 13.7837 10.5048 13.7863 10.4709L13.7471 10.4848C13.7501 10.5119 13.7471 10.5557 13.7127 10.6033C13.7297 10.5768 13.7366 10.5212 13.7393 10.4867C13.7004 10.4951 13.6626 10.4909 13.6518 10.4601C13.6291 10.3958 13.619 10.2176 13.644 10.1397L13.6399 10.1367L13.6314 10.1235L13.6292 10.1015C13.65 10.0134 13.6194 9.87398 13.6046 9.81497C13.5723 9.81719 13.5426 9.80148 13.5297 9.75152C13.4943 9.60428 13.4437 9.48675 13.4236 9.44327L13.4149 9.44799L13.4089 9.45049L13.4014 9.45297L13.3958 9.45414L13.3886 9.45464L13.3839 9.45426L13.3769 9.45201L13.3653 9.44274C13.3061 9.36644 13.1318 9.2705 13.0724 9.2391C13.0609 9.25442 13.0451 9.26487 13.025 9.27149C12.903 9.31164 12.6218 9.20563 12.1939 9.11194C11.741 9.0132 11.5246 8.90284 11.4576 8.86381C11.3716 8.88101 11.3304 8.82413 11.1711 8.61622C10.6031 7.93478 10.0695 7.66815 10.0173 7.64326C10.011 7.66191 10.0008 7.676 9.98654 7.68071L9.97522 7.68357L9.98132 7.71453L9.96785 7.68446L9.95229 7.68533L9.96566 7.71252L9.94415 7.68543C9.93046 7.68523 9.91469 7.68444 9.89669 7.68306C9.90868 7.69153 9.92102 7.70107 9.93419 7.71265C9.92064 7.70458 9.89879 7.69305 9.87588 7.68142C9.85089 7.6795 9.82239 7.67727 9.79033 7.67561C9.80916 7.68468 9.82978 7.69713 9.85092 7.71531L9.76236 7.67447L9.7242 7.67395C9.74783 7.68568 9.77592 7.70376 9.79897 7.7324L9.70462 7.67397L9.66486 7.67478C9.67801 7.68318 9.69636 7.69598 9.71107 7.71376C9.71107 7.71376 9.6854 7.70045 9.65902 7.67517C9.63565 7.6761 9.61109 7.67807 9.5857 7.68064C9.62205 7.69689 9.67026 7.72122 9.69326 7.74661C9.69326 7.74661 9.63101 7.71323 9.5752 7.68186C9.54966 7.68449 9.52315 7.6883 9.49551 7.69334L9.50369 7.70473L9.50867 7.71158C9.75367 7.78783 10.2227 8.2552 10.5449 8.58524L10.5721 8.61344L10.5806 8.60996L10.5858 8.62764C10.8857 8.94073 11.1516 9.28232 11.209 9.42799L11.2141 9.42902L11.2126 9.43664C11.2126 9.43664 11.4478 9.60174 11.7369 9.91414C11.8263 10.0197 12.5027 10.3494 12.9274 11.1743C13.0701 11.4513 13.1579 11.726 13.1987 11.9781L13.1998 11.9847C13.2042 12.0127 13.2081 12.0404 13.2115 12.0678L13.2127 12.0803C13.2153 12.1034 13.2176 12.1264 13.2195 12.1491L13.2212 12.1751C13.2225 12.1941 13.2236 12.2128 13.2242 12.2314L13.225 12.2556C13.2257 12.2809 13.226 12.3057 13.2256 12.3303L13.225 12.3441C13.2245 12.3643 13.2238 12.3842 13.2225 12.4038L13.2207 12.4289C13.2195 12.4452 13.2178 12.4614 13.216 12.4772L13.2135 12.5007C13.2106 12.5229 13.2074 12.5447 13.2037 12.5661L13.2014 12.5782C13.1979 12.596 13.1943 12.6132 13.1904 12.6303L13.1848 12.6525L13.1734 12.6937L13.1674 12.714C13.1613 12.733 13.1549 12.7514 13.148 12.7692L13.1445 12.7776L13.125 12.8225L13.1165 12.8399L13.0983 12.8737L13.0892 12.8895L13.0609 12.933L13.0577 12.9372L13.0284 12.9737L13.0177 12.9855L12.9925 13.011L12.9814 13.0212C12.9693 13.032 12.9568 13.0422 12.9437 13.0516C12.917 13.0709 12.8852 13.0865 12.849 13.0983C12.4769 13.2208 11.6405 12.9665 10.997 12.7983C10.9551 12.7874 10.914 12.7763 10.8737 12.7653L10.8633 12.7622C10.9456 12.8632 11.0402 12.9681 11.0919 13.0015C11.1261 13.0234 11.1429 13.0523 11.1475 13.0793C11.1652 13.0979 11.1931 13.1266 11.2247 13.1575C11.2709 13.2027 11.3248 13.2526 11.3654 13.2808C11.3857 13.2947 11.404 13.309 11.4201 13.3238L11.4317 13.3351L11.4424 13.3464L11.4513 13.357L11.4609 13.3706L11.467 13.3797L11.4774 13.4028L11.4792 13.4097L11.4831 13.4282L11.4836 13.4375L11.4827 13.456C11.504 13.4653 11.5246 13.4782 11.5442 13.4935L11.5728 13.5181C11.617 13.5604 11.6555 13.6122 11.693 13.6723L11.6982 13.6828L11.7007 13.688L11.705 13.6999L11.7075 13.71L11.7091 13.7216L11.7091 13.7316L11.7083 13.7431L11.7065 13.7526L11.7035 13.7639L11.7 13.7727L11.695 13.7835L11.7007 13.7962C11.711 13.811 11.7202 13.8244 11.73 13.8397C11.7591 13.8847 11.7919 13.9415 11.8127 13.9974C11.8305 14.0456 11.8276 14.0784 11.8149 14.0992L11.8198 14.108L11.8271 14.1214L11.8449 14.1568L11.8475 14.1622L11.856 14.1806L11.8586 14.187L11.874 14.226L11.8783 14.2382C11.8871 14.2659 11.894 14.2945 11.8967 14.3221L11.8981 14.3531C11.8976 14.3785 11.889 14.3986 11.8763 14.4136C11.8851 14.437 11.9052 14.4828 11.93 14.4983C11.8907 14.486 11.8778 14.4415 11.8734 14.4168L11.8541 14.4326C11.8607 14.4542 11.8728 14.4879 11.889 14.5035C11.889 14.5035 11.8601 14.4914 11.851 14.4348L11.8312 14.4435C11.8303 14.524 11.7719 14.5712 11.7719 14.5712C11.8054 14.5364 11.8208 14.477 11.827 14.4447L11.7916 14.45L11.7888 14.4543L11.7848 14.451C11.786 14.4769 11.7808 14.5248 11.7359 14.5725C11.7586 14.5457 11.7732 14.4813 11.7792 14.4496C11.7386 14.4456 11.7039 14.4214 11.707 14.3803C11.7145 14.2874 11.7003 14.1884 11.6902 14.1329C11.676 14.1287 11.6619 14.1156 11.6537 14.0829C11.6283 13.9987 11.6044 13.9079 11.5923 13.8613L11.5845 13.8623L11.5758 13.8618L11.5682 13.861L11.5592 13.8579L11.5533 13.8556L11.5443 13.8489L11.5404 13.8457L11.5302 13.8308C11.4838 13.7318 11.4162 13.6205 11.3842 13.5695C11.3465 13.5737 11.3035 13.5535 11.2643 13.4983C11.2045 13.414 11.101 13.2461 11.0548 13.1701C11.0058 13.1745 10.9483 13.1602 10.8929 13.092C10.8012 12.9667 10.7133 12.8389 10.624 12.712C10.6036 12.6832 10.5848 12.6844 10.5534 12.6759C10.5115 12.6645 10.4708 12.6445 10.4302 12.6287C10.3339 12.5907 10.2377 12.5527 10.1413 12.5149C10.0737 12.4882 10.006 12.4615 9.93834 12.4349C9.88289 12.4129 9.83001 12.3811 9.77526 12.3607C9.83179 12.4227 9.83207 12.5038 9.81685 12.5813C9.8352 12.488 9.78911 12.3976 9.7713 12.3673C9.73937 12.453 9.70206 12.54 9.65811 12.628C9.65811 12.628 9.63551 12.7312 9.58794 12.8771C9.5992 12.9061 9.60271 12.923 9.60102 12.9236C9.59964 12.924 9.594 12.9115 9.58601 12.8831C9.56981 12.9328 9.55082 12.9869 9.52885 13.0439C9.5377 13.0764 9.54028 13.0952 9.53874 13.0957C9.5372 13.0962 9.53246 13.0817 9.52638 13.0498C9.50881 13.0948 9.48956 13.1414 9.46815 13.1881C9.47854 13.2591 9.48904 13.3826 9.45952 13.4793C9.47589 13.396 9.47029 13.2718 9.46447 13.1966C9.43903 13.2524 9.41074 13.3088 9.37973 13.3636C9.38268 13.4399 9.38111 13.5521 9.35455 13.6387C9.36954 13.5641 9.37366 13.4524 9.37431 13.373C9.34154 13.4308 9.30562 13.4868 9.26654 13.5389C9.26129 13.6058 9.25062 13.6898 9.22873 13.761C9.24115 13.6994 9.25158 13.6172 9.25901 13.5486C9.22046 13.5992 9.17884 13.6451 9.13405 13.6855C9.13119 13.7265 9.11836 13.788 9.07324 13.8611C9.09807 13.8133 9.11382 13.7452 9.1229 13.6956C9.06609 13.7451 9.00477 13.785 8.93813 13.8107C8.93225 13.8131 8.92614 13.8152 8.92015 13.8172C8.82562 13.8483 8.71315 13.8461 8.59458 13.8233C8.63044 13.8551 8.67716 13.892 8.71973 13.9127C8.64814 13.8846 8.60214 13.8483 8.57389 13.8189C8.50634 13.8046 8.43692 13.7842 8.36793 13.7593C8.41749 13.8121 8.48325 13.8805 8.5356 13.9267C8.46797 13.878 8.40181 13.8079 8.35628 13.755C8.29001 13.7306 8.22435 13.7029 8.16097 13.6734C8.20727 13.7349 8.294 13.8452 8.36148 13.9049C8.27504 13.8425 8.19441 13.7305 8.15434 13.6703C8.0955 13.6426 8.03881 13.6137 7.98554 13.5849C8.01781 13.6374 8.10484 13.773 8.18148 13.8413C8.08351 13.7703 8.008 13.634 7.98221 13.5831C7.93692 13.5588 7.89458 13.5347 7.85571 13.5118C7.87567 13.5549 7.95051 13.7078 8.03313 13.7808C7.92801 13.7052 7.86865 13.5522 7.85403 13.5108C7.79914 13.4786 7.75157 13.449 7.71387 13.4245C7.73216 13.4739 7.78654 13.6065 7.86438 13.6754C7.76522 13.6039 7.72316 13.4703 7.71098 13.4229C7.65295 13.3853 7.61834 13.3609 7.61834 13.3609C7.58122 13.3418 7.54557 13.3225 7.51037 13.3025C7.52093 13.3403 7.55346 13.4345 7.629 13.5015C7.53214 13.4318 7.51164 13.3369 7.5072 13.3006C7.46027 13.2739 7.41462 13.2465 7.37093 13.2183C7.37821 13.2471 7.4094 13.3533 7.49212 13.4267C7.38665 13.3505 7.37166 13.2448 7.3695 13.2176C7.35369 13.2073 7.34093 13.1918 7.3274 13.1963C7.32479 13.1971 7.32207 13.1987 7.31944 13.2011L7.30923 13.2518C7.31008 13.2865 7.32606 13.3144 7.35158 13.3371C7.3309 13.3187 7.31026 13.3005 7.28979 13.2823C7.23469 13.3908 7.1807 13.4995 7.12512 13.6076C7.09663 13.6629 7.06761 13.7181 7.03769 13.7726C7.02214 13.801 7.0063 13.8295 6.9902 13.8577L6.94915 13.9276C6.96095 14.0442 6.9883 14.321 7.00254 14.5186C7.00436 14.6059 6.96964 14.6542 6.92977 14.6826C6.94365 14.7704 6.9734 14.9654 6.98219 15.0682C6.9882 15.1357 6.96857 15.179 6.93715 15.2C6.94592 15.2598 6.96637 15.3883 6.99486 15.4939L6.99673 15.5121L6.99325 15.528L6.98536 15.5418L6.98202 15.5452L6.97345 15.5534L6.96886 15.5564C6.98827 15.6004 7.02891 15.6853 7.06399 15.7659C7.0788 15.7961 7.07623 15.8152 7.06827 15.8278C7.09645 15.8764 7.14989 15.9611 7.21558 16.0272C7.24482 16.0565 7.23396 16.0976 7.20532 16.1269C7.23066 16.1471 7.28352 16.1866 7.31817 16.1925C7.25323 16.1851 7.21816 16.1522 7.2021 16.1317L7.20147 16.1366L7.19633 16.135L7.16608 16.1539C7.19181 16.1744 7.2419 16.21 7.28983 16.2146" fill="#282828"/>
</g>
<defs>
<clipPath id="clip0_23_2">
<rect width="82" height="18" fill="white"/>
</clipPath>
</defs>
</svg>
